<?xml version="1.0" encoding="UTF-8" standalone="no"?>
<!DOCTYPE svg PUBLIC "-//W3C//DTD SVG 1.1//EN" "http://www.w3.org/Graphics/SVG/1.1/DTD/svg11.dtd">
<svg width="100%" height="100%" viewBox="0 0 1440 1440" version="1.1" xmlns="http://www.w3.org/2000/svg" xmlns:xlink="http://www.w3.org/1999/xlink" xml:space="preserve" xmlns:serif="http://www.serif.com/" style="fill-rule:evenodd;clip-rule:evenodd;stroke-miterlimit:10;">
    <g transform="matrix(1,0,0,1,-1916,-840)">
        <g id="GMH-light" serif:id="GMH light" transform="matrix(1,0,0,1,426.01,840)">
            <rect x="1489.99" y="0" width="1439.99" height="1440" style="fill:none;"/>
            <g id="logo_light" transform="matrix(1,0,0,1,1489.99,0)">
                <g id="earth_copy_3">
                    <g transform="matrix(1,0,0,1,113.29,142.83)">
                        <path d="M551.56,475.35C552.46,476.06 552.86,476.84 551.91,477.91C550.96,478.98 547.81,479.53 545.52,480.08C543.846,480.559 542.416,481.657 541.52,483.15C540.932,483.986 540.197,484.708 539.35,485.28C538.49,485.83 538.76,487.33 538.76,488.36C538.76,489.39 540.46,488.99 542.59,489.11C544.72,489.23 544.44,489.82 545.42,489.78C546.4,489.74 545.9,491.04 546.37,491.23C546.84,491.42 547.75,491.9 547.08,492.42C546.41,492.94 546.84,491.98 545.54,491.94C544.24,491.9 544.08,492.5 543.45,492.54C542.82,492.58 542.45,492.42 542.23,491.54C542.01,490.66 540.23,490.24 538.8,490.36C537.37,490.48 537.22,491.36 536.87,492.36C536.52,493.36 536.79,493.7 535.77,494.76C534.75,495.82 534.35,496.34 533.83,496.22C533.31,496.1 533.95,494.13 533.56,493.58C533.17,493.03 531.19,494.29 529.69,495.67C528.19,497.05 527.37,499.06 526.69,499.22C526.01,499.38 526.1,498.47 525.62,498.39C525.14,498.31 525.15,499.39 524.12,499.49C523.09,499.59 522.67,499.22 523.06,498.78C523.246,498.632 523.354,498.407 523.354,498.17C523.354,497.933 523.246,497.708 523.06,497.56C522.67,497.09 520.26,497.17 518.49,497.21C516.72,497.25 517.03,496.06 517.11,495.55C517.19,495.04 518.53,494.55 517.58,494.49C516.63,494.43 515.14,494.88 514.7,494.49C514.26,494.1 515.37,493.9 515.18,493.42C514.971,492.882 514.93,492.293 515.06,491.73C515.186,491.042 515.538,490.416 516.06,489.95C516.34,489.87 516.06,491.22 516.65,491.14C517.24,491.06 517.21,490.47 517.17,489.87C517.13,489.27 517.76,489.87 518.9,489.13C520.04,488.39 519.85,488.3 520.28,487.39C520.71,486.48 522.41,486.33 522.65,485.77L523.83,485.77C523.328,486.522 522.919,487.331 522.61,488.18C521.919,489.416 521.068,490.556 520.08,491.57C519.3,492.4 519.61,492.63 520.08,493.03C520.55,493.43 521.5,492.48 522.13,492.16C522.76,491.84 523.32,492.91 523.99,492.79C524.66,492.67 527.61,490.03 528.99,489.05C530.37,488.07 530.25,487.82 531.99,487.75C533.73,487.68 532.99,487.23 533.8,486.88C534.61,486.53 534.63,486.72 535.42,485.73C536.21,484.74 535.77,484.08 535.66,482.97C535.55,481.86 537.43,481.08 539.72,479.78C542.01,478.48 543.34,478.68 544.92,478.52C546.5,478.36 547.21,477.52 548.63,476.47C550.05,475.42 550.65,474.64 551.56,475.35Z" style="fill:rgb(3,60,90);fill-rule:nonzero;"/>
                    </g>
                    <g transform="matrix(1,0,0,1,113.29,142.83)">
                        <path d="M541.48,533C541.54,533.47 540.42,533.23 539.23,533.29C538.04,533.35 538.17,533.53 538.35,534.41C538.53,535.29 537.82,535.78 536.51,536.41C535.2,537.04 535.27,535.99 535.15,537.47C535.03,538.95 535.04,539.07 536.15,540.31C537.222,541.31 537.927,542.642 538.15,544.09C538.56,546.09 539.21,545.99 540.22,547.09C541.23,548.19 541.22,548.8 539.63,550.7C538.712,551.988 537.057,552.54 535.55,552.06C534.78,551.82 533.89,550.93 532.41,550.58C531.253,550.348 530.257,549.615 529.69,548.58C528.87,547.45 528.04,546.98 527.51,546.15C526.98,545.32 527.74,544.73 526.38,544.91C525.02,545.09 525.73,544.61 523.84,544.08C521.95,543.55 521.47,544.14 519.29,544.56C517.11,544.98 516.57,543.37 515.68,543.08C515.379,542.947 515.022,543.059 514.85,543.34C515.11,543.11 514.19,542.02 514.15,541.19C513.985,540.195 514.173,539.172 514.68,538.3C515.118,537.691 515.456,537.016 515.68,536.3C516.03,535.53 517.45,536.06 517.87,535.76C518.29,535.46 517.63,534.82 518.4,534.11C519.17,533.4 518.81,533.11 519.76,532.93C520.71,532.75 521.24,533.1 522.07,532.16C522.9,531.22 521.3,530.32 522.6,530.32C523.289,530.334 523.972,530.193 524.6,529.91C525.07,529.79 524.72,528.37 525.84,528.79C526.96,529.21 528.21,529.55 528.15,529.91C528.09,530.27 527.02,530.09 527.32,530.8C527.62,531.51 530.04,532.04 529.32,532.75C528.6,533.46 527.6,532.39 527.32,533.4C527.04,534.41 528.03,534.46 528.15,535.53C528.27,536.6 527.44,536.3 527.85,537.3C528.26,538.3 528.91,536.95 529.8,537.07C530.69,537.19 530.87,536.71 531.46,536.59C532.05,536.47 533.11,537.07 533.7,537.01C534.29,536.95 534,535.76 533.29,535.71C532.58,535.66 532.05,535.71 531.99,535.29C531.93,534.87 531.28,533.52 531.4,533.04C531.52,532.56 531.93,533.04 533.59,532.45C535.25,531.86 534.71,532.16 536.19,532.22C537.67,532.28 538.02,532.1 538.67,532.45C539.32,532.8 541.42,532.47 541.48,533Z" style="fill:rgb(3,60,90);fill-rule:nonzero;"/>
                    </g>
                    <g transform="matrix(1,0,0,1,113.29,142.83)">
                        <path d="M571,544C571.36,544.94 572.66,545.89 571.47,546.24C570.318,546.738 569.211,547.333 568.16,548.02C568.045,548.075 567.935,548.138 567.83,548.21C568.146,547.878 568.382,547.478 568.52,547.04C568.99,545.65 567.93,545.3 567.1,545.04C566.27,544.78 566.03,543.38 564.85,543.98C563.67,544.58 564.02,545.87 563.55,546.22C563.08,546.57 562.84,544.8 562.01,545.87C561.18,546.94 563.37,547.87 562.87,548.47C562.37,549.07 561.71,551.31 562.87,551.78C564.03,552.25 564.87,553.78 565.56,553.2C565.61,553.2 565.64,553.13 565.66,553.13C565.5,553.32 563.59,555.29 564.5,557.13C565.56,559.26 564.73,554.13 566.74,555.24C568.75,556.35 567.57,558.24 568.16,558.91C568.75,559.58 568.99,559.97 567.33,559.62C565.67,559.27 565.09,559.62 564.33,560.8C563.57,561.98 563.85,562.22 564.68,562.34C565.51,562.46 564.09,563.87 565.16,564.82C566.23,565.77 565.75,565.53 565.27,566.95C564.79,568.37 564.33,570.62 564.92,571.33C565.51,572.04 565.04,573.22 564.33,572.63C563.62,572.04 563.74,571.63 562.33,572.04C560.92,572.45 560.08,573.54 559.25,572.79C558.42,572.04 558.31,572.79 556.77,571.09C555.23,569.39 554.01,569.2 553.77,567.09C553.53,564.98 552.91,565.2 554.44,563.09C555.97,560.98 555.03,560.25 556.34,559.89C557.65,559.53 558.7,559.07 557.64,558.71C556.58,558.35 556.64,556.39 555.74,555.04C553.94,552.27 553.38,550.79 554.09,549.6C554.783,548.739 555.031,547.601 554.76,546.53C554.44,545.46 553.3,545.7 554.76,544.28C556.22,542.86 556.34,541.28 557.4,541.92C558.46,542.56 559.77,542.92 560.47,541.79C561.17,540.66 561.54,541.21 562.25,540.62C562.96,540.03 562.6,539.91 563.79,539.55C564.98,539.19 564.02,538.84 565.68,539.55C567.34,540.26 567.33,540.38 568.28,539.79C569.23,539.2 569.11,540.73 568.99,541.68C568.87,542.63 567.99,543.93 569.07,544.16C570.15,544.39 570.64,543 571,544Z" style="fill:rgb(3,60,90);fill-rule:nonzero;"/>
                    </g>
                    <g transform="matrix(1,0,0,1,113.29,142.83)">
                        <path d="M522.5,561.75C522.97,561.63 523.5,562.22 522.5,563.16C521.5,564.1 521.32,564.41 520.96,566.36C520.6,568.31 520.84,568.07 519.84,569.31C518.513,570.741 517.343,572.31 516.35,573.99C514.46,577.06 513.63,576.88 512.74,577.18C511.85,577.48 511.74,576.59 510.67,576.53C509.6,576.47 509.61,576.17 509.13,575.29C508.666,574.315 507.769,573.613 506.71,573.4C505.59,573.22 505.05,573.16 504.46,573.87C503.87,574.58 503.1,574.16 502.22,574.16C501.34,574.16 501.68,573.4 501.56,572.86C501.44,572.32 500.2,571.92 499.56,571.62C498.92,571.32 499.8,570.5 499.56,570.32C499.32,570.14 499.03,570.02 498.14,569.32C497.502,568.814 496.812,568.378 496.08,568.02C495.42,567.73 496.25,566.66 496.08,566.19C495.91,565.72 495.25,565.72 494.6,565.48C493.81,565.031 493.265,564.247 493.12,563.35C492.88,562.35 493.24,561.81 492.12,561.16C491,560.51 491.24,559.92 489.99,560.04C488.74,560.16 488.81,559.57 487.99,560.34C487.048,561.132 486.437,562.25 486.28,563.47C485.86,565.3 484.09,564.71 483.62,564.71C483.15,564.71 483.38,563.06 482.62,562.11C481.86,561.16 482.09,560.75 481.44,559.51C480.79,558.27 480.44,558.68 480.08,557.2C479.72,555.72 481.14,554.42 480.55,553.89C479.96,553.36 480.02,553 479.43,551.89C478.84,550.78 478.72,550.23 477.89,550C477.06,549.77 477.6,549 476.89,548C476.18,547 477.6,546.82 476.77,545.76C475.94,544.7 476.77,543.63 478.19,543.27C479.61,542.91 480.08,541.74 479.96,540.2C479.84,538.66 480.91,537.48 480.91,537.01C480.91,536.54 481.5,535.23 480.91,534.52C480.32,533.81 478.78,534.52 478.3,533.69C477.82,532.86 477.71,531.56 476.3,531.21C474.89,530.86 475.95,529.55 474.41,528.13C472.87,526.71 469.8,526.24 468.26,526.13C466.72,526.02 468.03,524.36 467.08,523.13C466.372,522.367 466.372,521.173 467.08,520.41L466.96,519.82C466.84,519.22 467.96,518.99 468.68,518.93C469.4,518.87 468.91,520.23 469.5,521.23C470.09,522.23 470.27,522 470.92,521.35C471.57,520.7 471.57,521.53 472.34,521.47C473.11,521.41 473.7,519.87 474.41,519.93C475.12,519.99 475.3,519.4 475.41,518.46C475.52,517.52 476.41,517.1 477.71,516.21C479.01,515.32 478.84,515.08 480.14,515.38C481.44,515.68 482.33,516.15 483.39,515.14C484.45,514.13 483.8,512.6 485.16,512.54C486.52,512.48 486.58,512.6 486.82,513.9C487.06,515.2 487.47,515.9 488.54,515.79C489.61,515.68 489.3,515.03 489.9,515.44C490.5,515.85 491.37,515.32 492.08,514.73C492.79,514.14 492.73,514.67 492.62,516.5C492.51,518.33 492.5,518.22 491.67,519.05C490.84,519.88 490.67,520.23 490.9,521.18C491.217,522.253 491.319,523.378 491.2,524.49C491.02,525.73 490.55,525.73 491.43,527.39C492.31,529.05 491.73,527.92 491.31,529.63C490.89,531.34 492.38,529.4 492.02,531.52C491.66,533.64 492.73,534.6 491.67,536.37C490.61,538.14 490.13,539.15 489.07,538.44C488.01,537.73 487.18,538.09 487,537.14C486.82,536.19 486.47,535.61 485.34,535.61C484.21,535.61 485.22,537.56 485.28,539.33C485.34,541.1 485.52,540.81 486.23,541.93C486.94,543.05 486.76,542.93 487.83,541.1C488.9,539.27 489.01,539.57 489.3,539.57C489.833,539.696 490.392,539.654 490.9,539.45C491.975,538.895 492.859,538.031 493.44,536.97C493.8,536.08 493.38,535.43 494.04,534.72C494.7,534.01 494.45,533.48 495.1,534.36C495.75,535.24 495.69,537.2 496.22,537.14C496.75,537.08 496.64,533 496.46,532.06C496.28,531.12 495.51,531.17 495.34,530.58C495.17,529.99 496.05,529.87 496.28,529.45C496.51,529.03 496.05,528.33 495.45,527.74C494.85,527.15 495.1,525.02 495.22,524.13C495.34,523.24 496.22,522.65 496.46,521.71C496.7,520.77 495.75,520.47 495.93,519.87C496.11,519.27 496.52,518.75 496.93,517.69C497.177,516.763 497.903,516.037 498.83,515.79C499.77,515.56 499.77,516.21 499.53,516.98C499.29,517.75 499.18,518.98 499.42,518.98C499.66,518.98 499.83,517.98 500.13,517.91C500.43,517.84 500.66,518.74 500.42,520.4C500.18,522.06 498.65,521.46 498.71,522.47C498.77,523.48 499.36,524.12 499.65,526.61C499.94,529.1 500.24,526.13 500.36,528.61C500.364,529.984 500.525,531.353 500.84,532.69C501.07,533.69 499.77,533.57 499,535.82C498.23,538.07 497.52,537.12 497.64,538.72C497.76,540.32 496.87,543.72 497.52,544.04C498.17,544.36 498.83,544.04 498.35,544.57C497.87,545.1 497.41,544.57 497.17,545.46C496.93,546.35 497.47,546.7 497.17,547.59C496.87,548.48 496.11,549.07 496.76,549.25C497.41,549.43 497.35,548.95 497.17,549.54C496.99,550.13 497.82,551.2 498.23,551.08C498.64,550.96 498.59,550.08 499,549.78C499.41,549.48 498.83,548.24 498.94,547.89C499.05,547.54 499.94,549.07 500.24,548.74C500.54,548.41 500.07,547.53 500.54,547.18C501.01,546.83 501.19,548 501.66,547.71C502.13,547.42 501.9,546.53 502.55,546.47C503.2,546.41 503.08,545.76 502.79,545.11C502.5,544.46 501.96,544.57 501.96,545.58C501.96,546.59 501.49,545.87 501.19,544.99C500.89,544.11 501.13,543.86 501.72,543.69C502.31,543.52 502.67,540.97 503.08,540.2C503.49,539.43 503.73,540.38 504.86,540.49C505.99,540.6 506.86,539.72 507.58,539.55C508.3,539.38 507.7,540.97 509.29,542.5C510.88,544.03 511.01,542.44 511.78,542.27C512.55,542.1 512.25,542.39 514.08,543.1C514.56,543.29 514.81,543.31 514.9,543.23C514.604,543.733 514.347,544.258 514.13,544.8C513.6,545.86 512.83,544.98 511.41,544.27C509.99,543.56 509.7,542.79 508.99,543.44C508.305,543.906 507.803,544.595 507.57,545.39C507.33,546.39 506.8,545.81 506.44,546.1C506.08,546.39 506.03,546.81 506.86,546.93C507.69,547.05 507.27,546.16 507.74,545.81C508.21,545.46 508.4,545.92 507.92,547.46C507.44,549 507.21,548.46 506.27,548.73C505.33,549 505.73,549.65 506.56,550.18C507.39,550.71 507.45,550.71 507.04,551.48C506.578,552.352 506.37,553.336 506.44,554.32C506.56,555.21 507.57,553.91 507.44,554.26C507.31,554.61 507.38,555.26 508.44,556.26C509.5,557.26 508.27,557.56 508.92,557.74C509.57,557.92 511.28,559.28 511.76,558.98C512.24,558.68 511.52,557.33 512.53,557.33C513.54,557.33 514.42,558.63 514.53,560.05C514.64,561.47 516.12,561.7 517.78,561.82C519.44,561.94 519.08,561.35 520.03,560.88C520.98,560.41 520.5,561.53 521.21,562.06C521.92,562.59 522,561.86 522.5,561.75ZM489.11,522C489.54,521.445 489.776,520.763 489.78,520.06C489.78,519.51 489.3,519.06 488.83,519.43C488.36,519.8 487.2,520.57 487.3,521.76C487.38,522.76 486.98,522.76 487.53,522.76C488.153,522.804 488.755,522.514 489.11,522ZM487.11,525.39C487.7,524.39 486.51,523.85 485.8,523.49C485.09,523.13 484.62,525.49 483.32,527.49C482.02,529.49 481.74,528.81 483.32,529.26C484.32,529.54 484.46,529.18 484.98,528.51C485.5,527.84 486.54,526.32 487.14,525.38L487.11,525.39Z" style="fill:rgb(3,60,90);fill-rule:nonzero;"/>
                    </g>
                    <g transform="matrix(1,0,0,1,113.29,142.83)">
                        <path d="M525.63,642.15L524.73,642.15C524.62,641.92 524.5,641.69 524.39,641.48C523.92,640.59 521.97,638.64 521.32,636.81C520.437,634.857 518.969,633.225 517.12,632.14C515.46,631.14 514.99,629.14 515.12,627.05C515.302,625.121 514.957,623.178 514.12,621.43C513.753,620.406 512.983,619.575 511.99,619.13C511.4,618.77 512.11,613.8 512.17,612.86C512.193,611.522 512.112,610.185 511.93,608.86C511.76,607.582 511.205,606.386 510.34,605.43C509.51,604.3 509.92,602.71 510.28,601.64C510.64,600.57 510.57,600.05 509.92,599.64C509.27,599.23 509.33,598.22 509.39,596.64C509.327,595.277 509.068,593.929 508.62,592.64C508.38,591.52 508.8,589.45 508.56,587.56C508.255,586.157 508.058,584.733 507.97,583.3C507.91,581.05 508.09,579.87 508.5,579.87C508.91,579.87 508.8,582.95 508.92,584.96C509.04,586.97 509.69,587.85 510.28,587.85C510.87,587.85 510.93,586.67 511.22,586.08C511.51,585.49 512.7,583.3 513.06,583.54C513.42,583.78 512.82,585.02 512.17,586.61C511.52,588.2 512.05,589.1 513.12,591.8C514.182,594.584 514.894,597.49 515.24,600.45C515.48,602.87 515.95,602.22 516.9,604.59C517.85,606.96 517.73,608.79 517.49,611.59C517.25,614.39 517.31,615.31 518.2,616.08C519.407,616.984 520.297,618.249 520.74,619.69C521.387,621.887 522.22,624.025 523.23,626.08C524.65,629.21 525.06,630.57 524.59,632.4C524.085,633.816 524.085,635.364 524.59,636.78C525.12,638.78 525.24,637.96 525.36,640.98C525.373,641.384 525.465,641.781 525.63,642.15Z" style="fill:rgb(3,60,90);fill-rule:nonzero;"/>
                    </g>
                    <g transform="matrix(1,0,0,1,113.29,142.83)">
                        <path d="M478.23,696.24C480.397,698.835 482.385,701.575 484.18,704.44C453.86,672.933 436.935,630.847 437,587.12L437,586.43C437.303,589.072 437.75,591.696 438.34,594.29C438.81,597.13 438.81,598.86 439.52,599.81C440.381,600.71 440.982,601.826 441.26,603.04C441.73,604.93 442.99,606.83 443.94,606.83C444.89,606.83 444.8,607.83 445.99,609.19C447.18,610.55 447.48,611.87 447.72,614.4C447.96,616.93 447.88,616.84 448.9,618.65C449.92,620.46 450.48,620.39 451.74,622.12C453,623.85 453.32,627.49 453.56,629.3C453.8,631.11 452.85,631.11 453.08,632.61C453.31,634.11 453,635.37 453.08,637.74C453.258,639.449 453.826,641.095 454.74,642.55C454.98,643.89 455.84,646.41 458.13,652.09C460.42,657.77 462.13,663.6 463.18,666.99C464.23,670.38 464.12,669.83 463.81,670.99C463.5,672.15 464.99,672.72 464.67,673.99C464.35,675.26 464.75,676.35 466.09,678.56C467.43,680.77 469.4,683.84 471.38,686.92C472.493,688.698 473.904,690.271 475.55,691.57C475.54,692.46 475.86,693.72 478.23,696.24Z" style="fill:rgb(3,60,90);fill-rule:nonzero;"/>
                    </g>
                    <g transform="matrix(1,0,0,1,113.29,142.83)">
                        <path d="M499.2,667.9C499.44,668.61 500.38,669.67 500.03,670.62C499.702,671.246 499.262,671.805 498.73,672.27C498.61,672.51 500.14,673.06 499.55,673.69C498.79,674.52 499.79,672.98 498.73,673.45C497.67,673.92 496.97,672.59 496.24,672.27C495.03,671.74 495.06,670.97 495.06,669.43C495.06,667.89 494.82,666 495.65,666C496.48,666 499,667.19 499.2,667.9Z" style="fill:rgb(3,60,90);fill-rule:nonzero;"/>
                    </g>
                    <g transform="matrix(1,0,0,1,113.29,142.83)">
                        <path d="M729.69,675.72C729.43,675.86 726.83,677.38 725.93,677.83C725.03,678.28 724.87,677.71 723.45,678.78C722.03,679.85 721.45,680.55 720.2,680.67C718.95,680.79 718.2,682.21 717.8,681.85C717.4,681.49 717.3,680.79 715.64,681.85C713.98,682.91 711.71,682.85 710.91,684.73C710.11,686.61 712.09,685.28 712.68,685.52C713.27,685.76 713.75,685.28 714.34,684.74C714.93,684.2 716.7,684.57 717.8,684.74C718.9,684.91 720.13,683.04 721.47,683.04C722.81,683.04 723.21,681.86 724.27,682.1C725.33,682.34 727.82,680.44 728.77,679.61C729.72,678.78 731.25,678.2 731.84,677.72C732.43,677.24 731.49,677.01 730.31,677.13C729.13,677.25 728.41,678.43 727.7,678.43C726.99,678.43 729.42,676 729.69,675.72ZM775.88,587.12C775.89,598.157 774.825,609.169 772.7,620C772.56,620.31 770.26,625.38 769.42,625.68C768.219,626.447 767.264,627.545 766.67,628.84C766.148,630.106 765.775,631.428 765.56,632.78C765.17,634.36 765.01,634.78 764.3,634.51C763.59,634.24 764.77,631.6 763.91,632.15C762.832,632.673 761.946,633.524 761.38,634.58C760.91,635.77 759.38,637.19 759.73,637.58C760.08,637.97 761.15,636.87 761.38,637.03C761.61,637.19 762.38,636.82 762.88,636.13C763.38,635.44 761.46,638.76 761.54,639.23C761.62,639.7 761.54,641.36 761.86,641.23C762.18,641.1 762.64,639.1 763.12,639.02C764.141,638.488 765.051,637.765 765.8,636.89C766.67,635.89 766.04,638.31 766.2,638.89C766.36,639.47 764.54,642.75 764.77,643.3C765,643.85 766.47,639.95 767.44,640.09C764.878,647.862 761.757,655.439 758.1,662.76C758.089,661.841 758.237,660.928 758.54,660.06C759.023,658.826 759.591,657.626 760.24,656.47C760.75,655.47 761.24,654.62 760.87,654.66C760.5,654.7 759.87,655.37 758.98,657.18C758.09,658.99 757.98,658.56 757.2,658.88C756.42,659.2 756.85,660.41 756.53,661.72C756.21,663.03 754.68,663.72 753.65,665.18C752.62,666.64 752.79,666.76 751.65,669.64C751.232,671.087 750.414,672.387 749.29,673.39C748.5,674.29 748.97,672.83 748.86,672.68C748.75,672.53 748.3,673.07 747.36,674.17C745.996,675.713 744.901,677.474 744.12,679.38C743.06,681.94 742.47,682.14 741.76,682.49C741.05,682.84 741.29,683.95 740.76,685.02C740.23,686.09 740.21,684.66 739.97,684.7C739.73,684.74 739.26,685.02 737.97,687.14C736.44,689.855 734.616,692.394 732.53,694.71C729.81,697.71 725.2,701.22 723.9,702.4C722.6,703.58 722.36,705 721.53,704.53C720.7,704.06 720.59,706.42 720,706.3C719.41,706.18 718.58,707.01 717.16,708.67C715.74,710.33 715.62,710.8 715.38,712.1C715.14,713.4 712.66,715.77 711.24,718.25C709.835,720.335 708.191,722.248 706.34,723.95C646.32,767.751 564.171,767.213 504.73,722.63L504.87,722.44C505.22,721.91 509.87,725.04 511.08,725.1C512.29,725.16 512.2,724.57 512.2,723.98C512.2,723.39 513.44,723.74 513.56,723.21C513.68,722.68 511.37,720.43 511.84,720.13C512.31,719.83 515.69,721.13 515.57,720.13C515.45,719.13 514.03,718.13 513.44,716.82C512.85,715.51 511.02,713.27 510.72,712.68C510.42,712.09 511.19,712.21 512.91,712.09C514.63,711.97 513.74,711.03 515.22,710.85C516.7,710.67 519.41,711.79 521.22,710.85C523.03,709.91 522.58,707.54 521.04,705.85C519.5,704.16 520.33,702.95 519.62,701C518.883,699.264 517.773,697.71 516.37,696.45C515.37,695.56 516.07,693.55 515.37,692.96C514.67,692.37 515.2,690.83 514.66,689.96C514.12,689.09 513.36,688.72 513.01,687.83C512.66,686.94 513.66,685.83 514.49,684.94C515.32,684.05 516.26,682.94 516.26,682.1C516.26,681.26 515.96,681.45 517.74,681.03C519.52,680.61 521.46,678.73 523.59,676.83C525.741,675.116 528.249,673.906 530.93,673.29C533.41,672.58 535.01,671.22 537.08,669.38C539.066,667.648 540.779,665.625 542.16,663.38C543.11,661.67 543.46,660.66 544.23,660.13C545,659.6 545.12,660.19 545.12,659.66C545.12,659.13 545.18,658.77 545.83,658.53C546.48,658.29 546.54,657.05 546.72,655.16C546.75,653.85 547.115,652.569 547.78,651.44C548.19,650.96 546.95,649.9 546.01,649.66C545.07,649.42 544.41,650.79 542.52,650.96C540.63,651.13 540.92,650.73 539.09,650.43C537.614,650.28 536.126,650.28 534.65,650.43C533.11,650.43 532.94,649.43 531.81,649.43C530.68,649.43 530.93,649.91 528.92,649.91C526.91,649.91 525.92,648.19 525.37,647.13C524.82,646.07 524.6,646.18 524.18,646.06C523.76,645.94 523.59,645.47 524.54,644.53C525.122,643.877 525.188,642.906 524.7,642.18L525.6,642.18C526.37,643.9 528.89,643.35 530.81,642.85C532.272,642.41 533.829,642.393 535.3,642.8C536.43,643.03 537.08,642.44 538.02,641.85C538.96,641.26 539.91,642.73 540.74,642.79C541.57,642.85 541.57,641.85 542.63,641.43C543.69,641.01 546.24,641.2 548.31,641.08C550.38,640.96 551.45,639.13 552.31,638C553.17,636.87 556.63,637.17 557.69,637.12C558.75,637.07 560.36,637.59 560.95,636.29C561.54,634.99 561.36,635.22 562.78,635.05C564.2,634.88 564.2,635.1 564.61,633.69C565.02,632.28 566.27,632.8 567.61,632.62C568.95,632.44 568.91,630.62 569.09,629.37C569.102,628.415 569.848,627.617 570.8,627.54C571.8,627.3 571.69,627.36 572.58,626.12C573.582,624.934 574.51,623.689 575.36,622.39C575.65,621.62 575.24,620.97 574.12,619.39C573,617.81 572.58,617.09 571.45,616.91C569.201,616.753 567.242,615.291 566.45,613.18C565.32,610.11 566.68,607.86 565.97,607.92L565.63,606.46C565.857,606.455 566.078,606.39 566.27,606.27C566.74,605.97 566.21,604.85 567.22,605.5C568.294,606.387 568.921,607.707 568.93,609.1C569.05,610.64 568.46,610.29 570.41,610.58C572.36,610.87 574.13,611.58 575.79,611.82C577.45,612.06 577.39,613.07 579.69,613.18C581.99,613.29 586.04,612.49 587.69,613.5C589.34,614.51 591.47,614.07 593.21,613.68C594.112,613.424 595.068,613.424 595.97,613.68C596.75,616.28 599.44,618.33 600.7,619.28C601.704,620.082 602.653,620.95 603.54,621.88L606.85,621.88C606.85,621.88 606.3,622.98 604.17,623.38C604.17,623.38 603.85,626.14 607.32,627.63C610.79,629.12 612.6,627.55 613,626.69C613.4,625.83 612.92,623.61 614.1,623.77C615.28,623.93 613.23,624.87 614.1,627.48C614.97,630.09 614.62,629.21 614.48,631.58C614.36,633.864 614.973,636.129 616.23,638.04C617.23,639.3 616.39,640.88 617.81,643.09C619.23,645.3 621.59,649.32 621.59,650.97C621.59,652.62 621.36,654.28 623.09,655.23C624.82,656.18 625.14,657.52 625.53,658.86C625.92,660.2 626.09,662.09 627.9,663.86C629.71,665.63 629.32,665.91 630.19,666.11C631.06,666.31 631.33,665.8 631.72,665.72C632.11,665.64 632.39,665.56 632.83,664.38C633.27,663.2 633.1,662.88 634.37,662.84C635.64,662.8 635.31,662.56 635.63,661.38C635.95,660.2 635.86,659.65 636.81,659.45C637.76,659.25 637.81,658.34 637.87,656.65C637.93,654.96 637.72,654.8 638.62,653.81C639.52,652.82 638.82,649.12 638.62,647.11C638.42,645.1 637.87,643.11 638.54,642.93C639.636,642.693 640.662,642.207 641.54,641.51C642.087,640.857 642.769,640.332 643.54,639.97C644.76,639.34 644.54,637.97 645.59,637.21C647.355,636.209 648.889,634.845 650.09,633.21C652.09,630.57 652.69,629.39 654.66,628.13C656.63,626.87 658.13,626 657.89,624.22C657.65,622.44 657.62,621.66 659.19,621.15C660.76,620.64 665.11,620.64 666.88,618.74C668.65,616.84 668.1,615.31 668.1,615.31C668.1,615.31 670.78,616.1 671.57,617.52C672.36,618.94 671.41,620.24 673.42,621.38C675.43,622.52 676.14,622.84 676.97,622.92C677.8,623 676.54,624.1 677.97,625.41C679.4,626.72 679.66,627.06 679.97,628.41C680.28,629.76 679.89,631.29 679.97,632.47C680.05,633.65 679.81,635.04 680.97,634.8C682.13,634.56 682.43,633.89 682.79,633.8C683.15,633.71 683.14,634.8 684.05,633.8C684.96,632.8 684.29,632.9 685.05,632.3C685.81,631.7 685.37,630.61 685.92,630.73C686.47,630.85 687.1,631.28 687.26,629.73C687.42,628.18 687.26,627.73 687.73,628.63C688.2,629.53 688.6,630.99 689.35,631.27C689.28,631.935 689.446,632.605 689.82,633.16C690.42,633.79 690.1,634.23 690.14,635.16C690.18,636.09 690.97,636.27 691.28,636.86C691.59,637.45 691.28,638.55 691.99,638.95C692.7,639.35 692.7,639.38 692.7,640.45C692.611,641.399 692.788,642.355 693.21,643.21C693.65,643.76 693.81,645.33 693.41,645.41C693.01,645.49 692.98,646.48 693.1,647.41C693.16,647.92 693.24,648.62 693.28,649.19C693.343,649.544 693.319,649.908 693.21,650.25C693.02,650.45 692.86,650.84 693.02,652.03C693.18,653.22 693.41,653.52 693.96,653.56C694.51,653.6 696.09,654.98 697.12,656.4C698.15,657.82 699.4,659.56 699.64,660.9C700.065,663.476 701.797,665.655 704.21,666.65C707.68,668.15 708.87,667.65 708.95,666.57C709.03,665.49 707.21,663.73 707.13,662.87C707.05,662.01 706.74,660.82 707.29,660.03C707.84,659.24 707.05,657.27 705.63,656.4C704.21,655.53 702.16,654.4 701.38,654.59C700.6,654.78 700.27,655.14 699.64,654.35C699.01,653.56 698.54,653.88 698.58,652.7C698.62,651.52 698.5,651.4 697.87,651.32C697.24,651.24 697.39,650.32 697.43,649.7C697.47,649.08 697.12,649.03 696.76,649.34C696.4,649.65 695.67,650.54 695.55,649.2L695.55,648.95C695.407,647.804 695.545,646.641 695.95,645.56C696.248,644.74 696.3,643.85 696.1,643C696.1,642.41 696.85,642.8 696.77,641.18C696.69,639.56 696.02,637.4 697.01,636.93C698,636.46 699.01,635.74 699.22,636.33C699.353,636.994 699.325,637.679 699.14,638.33C699.06,638.88 699.02,639.19 699.73,638.96C700.395,638.701 701.007,638.325 701.54,637.85C702.1,637.42 702.54,638.44 703.12,638.68C703.7,638.92 704.3,638.92 704.42,639.59C704.638,640.286 705.018,640.92 705.53,641.44C705.92,641.91 706.04,641.01 706.23,640.89C706.42,640.77 707.1,642.39 707.58,642.39C708.06,642.39 708.84,641.13 709.31,641.39C709.78,641.65 709.98,642.65 709.94,644.39C709.9,646.13 709.86,646.56 710.41,646.39C710.96,646.22 711.12,644.97 711.91,644.39C712.7,643.81 712.82,643.09 713.37,642.62C713.92,642.15 714.67,642.3 714.79,641.39C714.91,640.48 714.79,639.11 715.89,638.48C716.99,637.85 716.76,638.16 717.89,636.62C719.02,635.08 719.94,634.97 720.02,633.78C720.2,631.534 720.028,629.273 719.51,627.08C718.957,624.627 717.631,622.415 715.73,620.77C714.73,619.87 713.73,620.18 712.53,619.24C711.33,618.3 710.21,616.83 709.22,616.48C708.23,616.13 708.63,615.37 708.59,614.43C708.442,613.464 708.667,612.476 709.22,611.67C709.97,610.44 710.09,608.79 710.56,607.96C711.258,606.896 712.123,605.951 713.12,605.16C714.12,604.37 713.91,604.73 714.82,604.37C715.73,604.01 715.73,603.15 716.12,603.15C716.51,603.15 716.36,603.51 716.4,604.61C716.44,605.71 716.75,607.13 717.58,606.9C718.41,606.67 718.29,606.03 718.33,604.77C718.37,603.51 718.13,602.77 718.76,602.6C719.669,602.183 720.488,601.592 721.17,600.86C722.17,599.92 723.69,599.21 723.85,598.18C724.01,597.15 723.53,596.05 723.85,596.09C724.17,596.13 725.39,596.33 725.78,595.54C726.17,594.75 726.88,593.45 727.47,593.22C728.06,592.99 728.97,592.55 729.05,591.95C729.13,591.35 729.17,589.39 729.6,589.12C730.357,588.656 730.87,587.879 731,587C731.07,585.93 730.8,585.66 731.43,585C731.971,584.261 732.172,583.325 731.98,582.43C731.86,581.72 731.78,581.29 732.26,580.86C732.74,580.43 732.26,579.59 732.02,579.04C731.78,578.49 731.63,576.84 732.02,576.44C732.41,576.04 732.02,575.26 732.14,575.02C732.541,574.449 732.572,573.693 732.22,573.09C731.67,572.09 732.01,572.09 732.47,571.39C732.905,570.883 732.905,570.127 732.47,569.62C732.06,569.03 732.42,567.85 732.38,567.33C732.34,566.81 731.94,566.9 731.94,566.11C731.94,565.32 732.06,564.02 731.59,564.11C731.12,564.2 731,564.82 730.59,564.78C730.18,564.74 730.12,564.19 729.72,564.43C729.32,564.67 729.45,565.25 729.13,565.17C728.81,565.09 728.94,564.17 729.41,563.44C729.88,562.71 730.55,562.3 729.68,561.44C728.81,560.58 728.3,560.85 729.13,560.44C729.96,560.03 729.21,559.3 727.79,558.35C726.37,557.4 725.86,557.49 724.36,555.59C722.86,553.69 723.14,554.33 722.19,554.1C721.011,553.883 720.205,552.756 720.38,551.57C720.38,549.88 720.38,550.31 720.85,549.72C721.32,549.13 721.13,548.3 721.17,547.43C721.21,546.56 720.73,546.61 721.88,545.43C723.03,544.25 723.26,543.7 723.18,542.75C723.1,541.8 722.63,542 722.35,542.32C722.07,542.64 721.72,543.62 720.93,543.5C720.14,543.38 719.24,542.87 718.61,544.01C717.98,545.15 717.98,545.55 718.29,545.71C718.6,545.87 718.8,546.71 718.21,546.77C717.62,546.83 716.99,547.01 716.87,545.95C716.75,544.89 716.16,544.57 715.73,544.88C715.3,545.19 714.82,545.67 714.11,545.24C713.432,544.876 712.986,544.188 712.93,543.42C712.93,542.71 712.93,542.82 713.84,542.06C714.75,541.3 714.31,540.74 714.11,540.19C713.743,539.635 713.846,538.885 714.35,538.45C715.033,537.823 715.308,536.863 715.06,535.97C714.78,535.1 714.39,534.24 715.45,534.08C716.51,533.92 716.95,534.71 717.07,535.5C717.19,536.29 716.83,538.5 717.15,538.81C717.378,539.03 717.702,539.12 718.01,539.05C718.13,539.05 717.82,540.54 718.21,540.54C718.6,540.54 718.88,540.31 719.04,538.34C719.2,536.37 719.16,536.56 719.67,536.05C720.18,535.54 720.22,534.23 720.85,534.05C721.48,533.87 722.71,533.83 722.78,534.46C722.85,535.09 723.1,536.04 723.61,536.12C723.61,536.12 723.49,538.37 724.24,538.68C724.99,538.99 725.78,539 725.98,538.48C726.18,537.96 726.53,537.97 726.81,538.25C727.413,538.806 727.884,539.489 728.19,540.25C728.54,541.25 729.33,541.75 729.64,542.3C729.95,542.85 729.96,544.3 730.55,545.14C731.14,545.98 730.79,546.44 731.14,546.91C731.258,547.093 731.461,547.203 731.678,547.203C731.959,547.203 732.208,547.018 732.29,546.75C732.48,546.24 732.29,545.65 732.74,545.57C733.19,545.49 733.07,544.57 733.27,544.35C733.47,544.13 733.67,544.15 733.71,541.83C733.84,539.851 733.17,537.9 731.85,536.42C730.43,534.57 729.41,534.62 728.74,533.97C728.07,533.32 727.95,532.97 726.92,532.97C725.89,532.97 725.27,532.97 725.19,531.78C725.143,530.652 725.261,529.524 725.54,528.43C725.891,527.265 725.692,526.001 725,525C724.25,524 723.86,524.13 723.82,522.4C723.78,520.67 723.35,520.78 723.82,520.67C724.29,520.56 724.57,520.03 723.82,518.93C723.07,517.83 723.27,517.08 723.54,517.16C723.81,517.24 724.77,518.97 725.54,517.35C726.31,515.73 726.01,513.73 725.34,511.6C724.67,509.47 724.43,509.07 723.6,506.67C722.77,504.27 721.12,502.21 720.96,501.19C720.763,500.336 720.447,499.515 720.02,498.75C719.428,497.159 718.512,495.708 717.33,494.49C715.84,492.95 713.39,490.78 713,489.87C712.5,488.827 711.739,487.931 710.79,487.27C709.65,486.41 709.06,485.85 709.33,485.54C709.6,485.23 710.16,485.54 711.07,486.44C711.98,487.34 713.35,488.3 714.58,489.44C715.81,490.58 719.03,494.17 719.78,494.72C720.53,495.27 720.69,495.39 720.92,495.79C722.044,497.376 723.357,498.82 724.83,500.09C726.05,500.87 725.77,500.09 725.1,499.38C724.43,498.67 724.19,498.19 724.55,498.31C724.91,498.43 725.65,499.06 725.77,498.59C725.89,498.12 724.83,497.4 724.35,496.93C723.87,496.46 723.6,497.05 722.54,496.18C721.585,495.231 720.728,494.189 719.98,493.07C718.98,491.85 718.91,491.81 719.39,491.53C719.87,491.25 720.61,491.18 718.99,490.27C716.733,489.149 714.638,487.73 712.76,486.05C710.83,484.12 707.95,481.91 707.36,482.05C706.77,482.19 706.61,482.36 707.24,482.8C707.87,483.24 708.78,484.02 708.74,484.61C708.7,485.2 708.54,485.79 707.83,485.4C707.12,485.01 705.78,484.02 705.39,485.08C705,486.14 705.39,485.79 705.74,486.54C706.09,487.29 706.3,487.96 705.94,488C705.58,488.04 704.94,488.4 704.36,487.45C703.78,486.5 703.46,486.54 703.18,486.62C702.9,486.7 702.71,487.73 702,487.45C701.29,487.17 700.78,483.45 699.87,482.04C698.96,480.63 698.65,479.17 697.47,477.16C696.29,475.15 694.63,473.34 694.82,472.11C695.01,470.88 694.74,470.69 695.53,470.5C696.32,470.31 696.2,469.59 696.32,468.96C696.44,468.33 695.57,466.91 696.09,466.44C696.61,465.97 696.64,465.69 697.35,466.24C698.06,466.79 698.41,466.95 698.21,465.57C698.01,464.19 698.06,463.05 696.91,463.05C695.76,463.05 695.57,462.49 694.19,461.05C692.81,459.61 690.44,457.2 690.68,455.96C690.76,455.57 691.75,456.67 692.42,457.14C693.09,457.61 693.56,458.21 693.72,457.81C693.88,457.41 692.72,455.76 690.72,454.34C688.72,452.92 688.16,452.81 688.16,452.06C688.16,451.31 689.34,452.33 691.55,454.06C693.76,455.79 697.55,459.58 698.29,459.93C699.03,460.28 700.11,462.1 700.74,462.73C701.37,463.36 701.21,464.35 701.6,464.54C701.99,464.73 702.6,464.54 702.98,464.9C703.746,466.261 704.866,467.391 706.22,468.17C707.893,469.373 709.644,470.466 711.46,471.44C713.04,472.27 712.46,472.31 714.73,473.57C717,474.83 717.22,476.13 718.08,475.82C718.94,475.51 715.44,471.96 713.59,470.14C711.74,468.32 710.32,466.83 709.69,466.2C709.06,465.57 709.76,465.06 708.27,464.2C706.957,463.548 705.801,462.62 704.88,461.48C704.4,460.65 704.32,460.57 703.3,460.41C702.28,460.25 702.12,459.78 701.6,459.31C701.08,458.84 700.74,458.84 700.66,459.15C700.58,459.46 701.29,460.57 700.26,459.63C699.23,458.69 699.87,459.03 699.16,458.17C698.45,457.31 698.16,458.52 695.45,455.6C692.74,452.68 695.12,454.32 692.77,451.98C692.02,451.23 692.46,451.27 692.97,451.27C693.48,451.27 693.97,451.27 692.22,450.05C690.47,448.83 686.5,445.71 685.52,444.76C684.54,443.81 684.14,444.17 683.63,443.97C683.12,443.77 683.74,443.78 683.86,443.46C683.98,443.14 683.98,442.28 682.64,442C681.3,441.72 679.64,440.94 679.33,441.21C679.02,441.48 679.13,442.44 678.74,442.4C678.35,442.36 678.42,441.77 678.03,441.16C677.64,440.55 676.41,440.16 675.9,439.72C675.39,439.28 674.72,439.48 673.57,439.09C672.42,438.7 672.63,438.46 673.49,438.61C674.35,438.76 674.32,438.26 673.61,437.75C672.9,437.24 674.2,437.98 674.61,437.43C675.02,436.88 673.07,436.21 672.01,435.77C670.95,435.33 668.81,433.49 668.14,433.84L667.89,433.03C668.026,433.051 668.164,433.051 668.3,433.03C669.3,432.71 667.83,432.39 666.49,431.29C665.15,430.19 664.49,429.71 666.09,430.42C667.69,431.13 669.64,432.9 670.51,433.08C671.61,433.227 672.692,433.485 673.74,433.85C675.08,434.37 676.34,434.76 676.5,434.21C676.66,433.66 675.57,433.31 674.69,432.06C736.054,459.076 775.859,520.073 775.88,587.12ZM757.35,636.47C757.51,635.61 757.67,634.19 757.35,634.42C757.03,634.65 757.04,635.29 756.8,635.61C756.56,635.93 756.8,634.42 756.17,634.42C754.59,634.42 755.85,637.34 755.62,637.97C755.39,638.6 755.22,641.6 755.89,641.52C756.56,641.44 755.89,639.79 756.56,638.84C757.054,638.147 757.329,637.321 757.35,636.47ZM754.49,622.47C754.55,621.11 754.02,621.23 753.66,620.38C753.3,619.53 754.2,617.38 753.66,617.32C753.12,617.26 752.54,616.61 752.47,617.97C752.4,619.33 752.13,619.22 751.77,619.97C751.353,620.974 750.999,622.002 750.71,623.05C750.35,624.21 750.35,623.25 749.64,623.05C748.93,622.85 749.05,623.76 748.46,624.76C747.86,625.568 747.512,626.535 747.46,627.54C747.46,628.79 745.93,629.02 746.7,629.26C747.47,629.5 746.7,629.26 747.29,629.26C747.88,629.26 748.11,627.66 748.47,627.31C748.864,626.735 749.155,626.095 749.33,625.42C749.59,624.65 750.07,624.71 750.55,624.71C751.03,624.71 750.78,625.3 750.55,626.48C750.516,626.615 750.498,626.754 750.498,626.893C750.498,627.731 751.129,628.446 751.96,628.55C752.79,628.61 753.2,628.02 753.26,627.01C753.367,626.37 753.22,625.713 752.85,625.18C752.643,624.504 752.75,623.77 753.14,623.18C753.44,622.9 753.91,625.12 754.21,625.06C754.51,625 754.43,623.84 754.49,622.48L754.49,622.47ZM751.91,641.67C752.15,640.8 753.33,639.3 753.01,638.91C752.69,638.52 752.01,639.7 751.12,641.2C750.23,642.7 750.12,643.2 749.38,643.09C748.64,642.98 747.97,644.74 746.86,645.45C745.75,646.16 744.97,645.93 744.62,647.11C744.27,648.29 743.24,649.6 744.1,649.87C745.1,650.18 745.44,649.4 745.92,649.08C746.4,648.76 745.84,647.66 746.28,647.08C746.72,646.5 747.02,647.95 747.73,647.47C748.466,646.799 749.031,645.963 749.38,645.03C749.52,644.56 750.73,645.03 751.2,644.71C751.67,644.39 751.67,642.55 751.91,641.68L751.91,641.67ZM751.44,662.37C752.38,661.03 752.58,660.51 752.44,660.37C752.3,660.23 750.83,661.86 749.49,663.2C748.238,664.544 747.329,666.17 746.84,667.94C746.49,669.32 746.11,670.64 746.41,670.38C747.42,669.19 748.222,667.838 748.78,666.38C749.542,664.968 750.432,663.629 751.44,662.38L751.44,662.37ZM752,614.2C752.59,613.96 752,611.3 751.23,610.06C750.46,608.82 749.69,611.06 749.23,611.3C748.77,611.54 748.46,610 748.11,609.11C747.76,608.22 746.21,608.29 745.44,608.46C744.67,608.63 745.09,610.12 744.62,610.24C744.15,610.36 743.62,608.24 743.37,607.34C743.12,606.44 743.79,605.57 744.03,603.85C744.296,602.661 744.296,601.429 744.03,600.24C743.73,599.24 743.26,599.18 743.43,598.17C743.6,597.16 742.55,597.82 741.36,598.53C740.17,599.24 739.89,598.88 739.83,600.78C739.77,602.68 740.36,604.09 740.71,605.86L740.48,606.33C740.24,606.81 740.36,607.46 740.54,609.41C740.72,611.36 741.07,610.89 742.25,611.83C743.43,612.77 743.37,613.49 742.96,613.49C742.55,613.49 743.14,615.15 743.91,616.03C744.68,616.91 744.68,616.33 744.85,614.97C745.02,613.61 744.79,613.97 744.2,613.25C744.005,613.006 743.899,612.702 743.899,612.389C743.899,611.934 744.124,611.507 744.5,611.25C744.97,610.9 745.74,611.25 746.04,610.36C746.34,609.47 747.22,610.19 747.63,610.72C748.04,611.25 747.57,612.79 748.46,613.44C749.35,614.09 748.99,612.44 749.35,611.9C749.71,611.36 750.29,612.2 750.29,612.9C750.196,613.675 750.278,614.461 750.53,615.2C750.89,615.91 751.12,616.8 751.65,616.8C752.18,616.8 751.42,614.44 752,614.2ZM750.5,618.93C750.93,618.46 751.01,618.1 750.5,617.45C749.99,616.8 749.81,616.27 749.5,616.27C749.19,616.27 749.14,617.27 748.67,617.13C748.2,616.99 748.47,616.45 748.3,615.8C748.13,615.15 747.9,615.2 747.6,615.32C747.3,615.44 747.04,615.86 746.49,615.86C745.94,615.86 745.83,616.21 745.77,616.86C745.71,617.51 746.3,618.22 745.77,618.58C745.02,619.08 745.83,620.58 746.24,620.39C746.65,620.2 747.24,618.99 747.48,618.69C747.72,618.39 747.72,619.36 747.48,619.97C747.24,620.58 746.36,621.53 747.01,622.12C747.66,622.71 748.43,622.95 748.79,622.48C749.15,622.01 748.79,620.9 749.26,620.57C749.73,620.24 750.08,619.4 750.51,618.93L750.5,618.93ZM748.1,650.45C748.75,649.68 749.4,648.08 749.04,647.91C748.68,647.74 746.68,650.27 745.85,650.91C745.02,651.55 745.32,652.63 744.61,652.75C743.9,652.87 743.9,651.56 743.84,650.97C743.78,650.38 743.31,650.44 743.01,651.68C742.868,652.56 742.48,653.382 741.89,654.05C741.18,654.99 741.59,656.29 741.42,657.48C741.25,658.67 739.89,659.12 740.29,660.73C740.53,661.73 740.53,662.33 740.76,662.33C740.99,662.33 741,661.33 741.18,660.85C741.36,660.37 741.71,660.61 741.89,661.03C742.07,661.45 741.3,661.68 741.42,662.62C741.54,663.56 740.64,664.34 741.12,664.62C741.6,664.9 742.42,663.85 743.01,663.14C743.6,662.43 743.31,661.14 743.48,660.01C743.681,659.179 743.742,658.321 743.66,657.47C743.523,656.89 743.824,656.289 744.37,656.05C744.73,655.87 745.02,656.11 744.61,657.11C744.2,658.11 744.61,657.88 744.72,658.77C744.83,659.66 744.55,660.77 745.02,660.77C745.49,660.77 746.02,659.77 746.27,659C746.52,658.23 747.33,658.23 747.62,657.93C747.91,657.63 747.92,656.93 747.27,656.99C746.62,657.05 746.91,655.68 746.97,654.72C747.03,653.76 745.97,654.21 746.09,653.49C746.579,652.365 747.263,651.336 748.11,650.45L748.1,650.45ZM744.73,529.28C745.2,529.04 744.25,526.91 743.73,525.85C743.21,524.79 740.54,521.59 739.73,520.05C738.92,518.51 738.38,515.32 736.84,513.79C735.3,512.26 734.28,512.63 734.61,513.79C734.87,514.67 734.95,516.09 735.89,516.98C736.83,517.87 737.08,517.69 737.49,519.11C737.9,520.53 738.91,522.06 738.91,523.19C738.91,524.32 740.39,526.74 739.69,527.25C738.99,527.76 738.14,525.38 738.26,526.97C738.38,528.56 739.32,527.97 739.38,528.69C739.273,529.763 739.523,530.843 740.09,531.76C741.09,533.42 740.15,532.83 739.69,532.89C739.23,532.95 739.03,534.6 738.44,535.43C737.85,536.26 737.67,535.9 737.19,538.5C736.71,541.1 738.49,541.93 738.97,541.7C739.45,541.47 739.2,539.81 739.73,539.57C740.26,539.33 740.15,537.32 740.62,537.32C741.09,537.32 740.86,535.9 741.45,535.9C742.04,535.9 741.57,536.9 742.52,538.15C743.47,539.4 743.82,538.39 743.82,537.32C743.71,536.188 743.256,535.117 742.52,534.25C741.92,533.54 742.99,533.54 743.7,532.12C744.41,530.7 743.34,528.81 743.58,528.21C743.82,527.61 744.26,529.52 744.74,529.28L744.73,529.28ZM742.66,670.78C743.48,669.93 744.66,668.84 744.66,668.13C744.66,667.42 742.76,669.13 741.66,670.37C740.56,671.61 739.66,672.16 740.24,672.19C741.191,672.023 742.053,671.523 742.67,670.78L742.66,670.78ZM742.24,540.53C742.48,540.13 742.77,540.04 742.42,539.81C742.07,539.58 741.71,538.03 741.35,537.81C740.99,537.59 740.64,538.81 740.29,540.06C739.94,541.31 739.19,542.89 740.76,543.31C741.65,543.55 741.65,543.55 741.89,543.31C742.13,543.07 741.71,542.43 741.53,541.48C741.35,540.53 742,540.93 742.25,540.53L742.24,540.53ZM742.37,621.41C742.6,618.81 741.3,621.89 741.18,622.95C741.06,624.01 738.81,630.36 738.57,631.68C738.43,632.53 742.16,624 742.38,621.41L742.37,621.41ZM741.65,550.86C742.432,550.219 742.698,549.13 742.3,548.2C741.83,546.9 741.12,546.67 740.88,545.48C740.64,544.29 740.23,543.59 739.05,543.48C737.87,543.37 737.63,543.19 737.51,544.48C737.295,545.301 737.481,546.177 738.01,546.84C738.52,547.67 738.87,548.2 739.01,547.97C739.15,547.74 738.71,545.9 739.25,546.43C739.79,546.96 739.39,548.32 739.82,548.85C740.25,549.38 741.13,551.28 741.66,550.86L741.65,550.86ZM742.28,649.41C742.83,648.85 740.78,648.62 740.07,648.07C739.36,647.52 739.92,646.07 739.68,645.07C739.44,644.07 739.28,643.89 739.76,643.02C740.24,642.15 741.26,642.07 741.18,641.44C740.991,640.81 741.139,640.126 741.57,639.63C742.047,639.025 742.299,638.271 742.28,637.5C742.28,636.95 740.62,638.5 739.92,638.6C739.22,638.7 739.68,637.18 738.81,636.24C737.94,635.3 735.58,641.13 734.71,643.57C733.84,646.01 732.9,645.78 731.32,648.3C729.74,650.82 730.93,650.98 728.32,653.19C725.71,655.4 726.04,655.79 725.72,657.61C725.4,659.43 725.33,658.95 724.62,659C723.91,659.05 723.2,659.66 722.62,659.42C722.04,659.18 722.07,658.24 720.88,660.31C719.69,662.38 720.17,662.65 720.88,664.94C721.59,667.23 721.67,666.75 722.62,666.94L723.17,670.32C724.119,670.316 724.971,669.72 725.3,668.83C725.93,667.57 725.93,670.64 726.56,670.72C727.19,670.8 727.03,669.15 727.74,668.72C728.45,668.29 728.85,668.49 729.08,667.62C729.31,666.75 729.08,666.62 729.63,667.46C730.18,668.3 730.74,668.01 731.25,667.38C731.76,666.75 731.68,666.44 731.76,667.54C731.84,668.64 732.32,667.7 733.1,666.99C733.97,666.308 734.607,665.371 734.92,664.31C735.15,663.2 735.31,665.31 735.92,664.23C736.53,663.15 736.47,661 736.47,659.58C736.47,658.16 737.18,658.16 737.89,657.37C738.6,656.58 737.58,656.27 738.37,655.71C739.16,655.15 739,654.06 739.23,652.64C739.46,651.22 739,651.14 739.87,651.06C740.74,650.98 741.74,650 742.29,649.41L742.28,649.41ZM741.41,673.41C741.53,672.59 740.05,672.94 739.11,673.71C738.17,674.48 737.77,675.51 738.34,675.71C738.66,675.8 738.6,675.59 738.9,675.24C739.2,674.89 739.05,675 739.78,675.06C740.51,675.12 741.31,674.28 741.42,673.45L741.41,673.41ZM739.11,672.41C739.11,671.93 738.28,672.05 736.92,673.3C735.56,674.55 733.47,675.6 734.26,676.79C734.61,677.32 735.44,676.55 736.03,675.66C736.62,674.77 739.12,672.92 739.12,672.45L739.11,672.41ZM737.75,587.78C738.1,586.949 738.1,586.011 737.75,585.18C737.327,583.633 737.049,582.049 736.92,580.45C736.8,579.03 736.92,577.08 735.62,579.45C734.97,580.59 735.03,582.45 734.79,584.73C734.55,587.01 734.67,586.39 736.09,587.8C737.51,589.21 737.4,588.77 737.76,587.82L737.75,587.78ZM733.75,511.85C733.75,510.67 732.3,510.55 732.41,509.96C732.52,509.37 731.59,508.42 732.18,508.19C732.77,507.96 733.48,509.13 733.72,508.19C733.96,507.25 732.89,506.19 733.12,504.99C733.454,503.835 732.902,502.595 731.82,502.07C730.64,501.51 730.64,502.15 729.69,502.75C728.74,503.35 726.69,500.12 726.5,501.75C726.38,502.81 727.09,503.05 728.28,504C729.47,504.95 729.81,505.42 730.13,508.61C730.45,511.8 731.7,511.09 732.41,511.8C733.12,512.51 733.74,513.08 733.77,511.89L733.75,511.85ZM720,610.85C720.71,610.26 720.59,607.85 720,607.06C719.41,606.27 717,608.13 716.74,609.43C716.48,610.73 715.48,611.17 715.62,613.1C715.68,613.91 715.62,613.92 716.74,613.57C717.86,613.22 719.64,614.16 719.29,613.1C718.962,612.292 719.263,611.356 720,610.89L720,610.85ZM718.75,673.17C719.05,672.5 718.4,672.29 717.75,672.47C717.123,672.624 716.697,673.217 716.75,673.86C716.75,674.36 716.99,675.01 717.34,675.01C717.69,675.01 718.48,673.87 718.77,673.21L718.75,673.17ZM714.97,673.83C715.03,672.94 714.5,674.89 714.08,673.47C713.66,672.05 713.37,671.82 712.84,672C712.31,672.18 711.95,673.59 711.42,673.71C710.89,673.83 711.48,674.1 712.01,674.2C712.54,674.3 712.9,674.54 712.6,674.77C712.3,675 711.6,674.6 711.13,674.83C710.66,675.06 710.06,676.02 709.88,674.83C709.821,673.994 709.441,673.213 708.82,672.65C708.35,672.23 708.23,673.12 707.52,673C706.81,672.88 706.52,673.06 707.34,672.29C708.16,671.52 708.23,670.93 707.64,670.22C707.05,669.51 706.75,670.46 706.28,670.64C705.81,670.82 706.63,670.34 706.22,669.57C705.81,668.8 705.15,669.22 704.98,668.68C704.81,668.14 704.98,667.26 704.09,667.62C703.2,667.98 703.09,668.74 702.91,668.33C702.73,667.92 702.61,667.09 702.14,667.56C701.67,668.03 701.72,668.27 701.01,668.03C700.3,667.79 699.95,668.74 699.53,668.03C699.11,667.32 699.3,667.32 698.47,667.03C697.64,666.74 696.64,666.85 696.16,666.03C695.68,665.21 694.74,665.85 693.92,665.14C693.1,664.43 693.56,664.55 692.5,663.67C691.44,662.79 691.67,662.9 690.5,663.25C689.33,663.6 689.02,664.14 687.72,663.84C686.42,663.54 685.57,663.25 685.35,663.67C684.88,664.57 685.23,664.85 686.77,666.15C688.31,667.45 689.02,667.15 690.44,668.28C691.86,669.41 692.21,670.76 693.51,670.88C694.81,671 695.4,672.18 695.51,673.48C695.62,674.78 697.29,674.78 698.23,676.08C699.17,677.38 699.06,679.16 701.23,680.82C703.4,682.48 702.77,680.34 703.48,680.82C704.19,681.3 704.07,682.82 705.96,683.18C707.85,683.54 708.45,685.31 709.63,684.36C710.81,683.41 712.11,683.18 712.47,681.05C712.83,678.92 712.58,675.97 713.65,675.73C714.72,675.49 714.93,674.76 715,673.87L714.97,673.83ZM644.68,668C644.725,667.089 644.379,666.201 643.73,665.56C643.26,664.93 643.41,663.82 642.63,663.67C641.85,663.52 641.76,662.17 640.97,660.99C640.18,659.81 639.31,660.2 638.46,661.46C637.61,662.72 638.21,664.14 638.08,665.09C637.95,666.04 637.66,666.09 638.29,667.29C638.92,668.49 637.58,668.29 638.29,669.9L638.45,670.29C639.71,672.03 640.81,671.39 641.29,671.16C641.77,670.93 643.18,671.63 643.81,670.84C644.468,670.048 644.782,669.025 644.68,668ZM548.16,718.4C548.76,718.04 548.52,718.4 547.57,716.4C546.62,714.4 547.45,714.4 545.8,712.14C544.15,709.88 544.02,710.72 543.2,710.96C542.38,711.2 543.43,713.32 542.72,713.32C542.01,713.32 541.3,711.43 540.83,712.14C540.36,712.85 541.78,714.27 540.83,714.62C539.88,714.97 538.94,714.74 538.7,715.33C538.46,715.92 533.26,715.45 532.2,714.86C531.14,714.27 532.43,716.28 532.2,716.52C531.801,717.339 531.94,718.323 532.55,719C533.38,719.83 534.44,720.06 534.21,721.13C533.98,722.2 533.97,723.02 533.5,723.13C533.03,723.24 531.69,722.29 532.2,723.37C532.967,724.925 533.961,726.358 535.15,727.62C536.46,728.92 538.35,730.94 540,731.05C541.65,731.16 542.49,731.65 543,731.53C543.51,731.41 543.71,731.8 544.42,731.53C545.13,731.26 544.54,730.32 545.01,729.61C545.48,728.9 544.77,728.61 545.01,727.48C545.25,726.35 545.25,725.24 546.08,724.65C546.91,724.06 545.84,722.52 546.08,721.81C546.32,721.1 545.08,720.51 546.4,720.39C547.72,720.27 547.49,718.85 546.9,718.39C546.31,717.93 547.57,718.75 548.16,718.4Z" style="fill:rgb(3,60,90);fill-rule:nonzero;"/>
                    </g>
                    <g transform="matrix(1,0,0,1,113.29,142.83)">
                        <path d="M669.36,446.65C669.83,447.04 668.57,447.12 667.27,446.65C665.97,446.18 665.53,445.95 664.94,446.58C664.526,447.214 664.526,448.036 664.94,448.67C665.18,449.14 665.45,449.73 664.47,449.67C663.49,449.61 662.65,449.95 662.14,449.91C661.63,449.87 661.79,449.16 661.2,449.24C660.61,449.32 660.01,449.79 660.13,450.24C660.25,450.69 659.5,450.24 658.79,450.91C658.08,451.58 656.98,452.37 657.45,452.8C657.92,453.23 657.45,453.75 658.16,453.91C658.87,454.07 660.25,454.26 660.29,454.7C660.33,455.14 660.05,455.29 659.54,455.52C659.03,455.75 659.15,457.02 658.87,457.18C658.59,457.34 656.66,457.18 656.74,457.57C656.82,457.96 658.2,458.28 658.51,458.64C658.82,459 659.58,459.7 658.4,459.64C657.148,459.451 655.927,459.094 654.77,458.58C654.06,458.3 653.7,457.04 653.39,457.67C653.196,458.065 653.1,458.5 653.11,458.94C652.475,458.99 651.847,458.773 651.38,458.34C650.47,457.59 649.45,456.96 648.54,457.28C647.63,457.6 647.83,458.28 648.66,458.46C649.49,458.64 650,459.17 649.8,459.41C649.6,459.65 647.32,459.41 647.04,459.88C646.945,460.153 646.686,460.337 646.398,460.337C646.209,460.337 646.029,460.258 645.9,460.12C645.43,459.72 644.99,459.37 643.73,460.12C642.47,460.87 642.73,461.3 642.98,461.77C643.23,462.24 642.67,462.25 642.07,461.42C641.47,460.59 641.29,461.42 640.65,461.42C640.01,461.42 639.24,461.07 639.16,461.5C639.08,461.93 639.55,462.29 640.02,462.33C640.49,462.37 639.43,463.47 639.02,463.63C638.61,463.79 638.23,463.71 638.11,464.63C637.99,465.55 637.95,466.01 637.68,466.05C637.41,466.09 637.21,464.71 637.76,463.73C638.31,462.75 638.11,461.48 638.43,460.42C638.75,459.36 639.22,459.04 638.15,457.77C637.08,456.5 636.34,457.1 635.71,456.55C635.142,456.106 634.376,456.003 633.71,456.28C633,456.43 632.84,456.35 632.64,457.02C632.44,457.69 631.85,457.93 631.7,457.14C631.55,456.35 631.06,456.51 630.47,456.51C629.88,456.51 630.28,455.41 628.97,455.68C627.66,455.95 628.07,456.83 628.03,457.58C627.99,458.33 628.66,458.37 628.27,458.88C627.8,459.386 627.284,459.848 626.73,460.26C626.21,460.69 625.15,460.14 624.48,460.57C623.81,461 624.4,461.2 623.14,461.87C621.88,462.54 620.22,463.45 620.06,464.16C619.9,464.87 619.87,465.58 620.66,465.78C621.45,465.98 621.66,466.25 621.66,466.45C621.66,466.65 621.27,466.57 620.16,466.76C619.05,466.95 617.05,467.2 616.42,468.02C615.79,468.84 616.58,468.69 616.73,469.44C616.88,470.19 616.65,470.19 617.92,470.63C619.19,471.07 618.43,470.86 619.53,471.57C620.63,472.28 620.12,473.19 620.87,473.9C621.62,474.61 620.81,475.73 622.09,476.4C621.591,476.194 621.08,476.017 620.56,475.87C619.81,475.67 620.56,473.98 619.93,473.87C619.3,473.76 618.83,472.96 619.32,472.8C619.81,472.64 619.73,471.9 619.02,471.66C618.31,471.42 617.52,471.78 616.77,471.19C616.02,470.6 614.77,470.79 614.37,470.64C613.97,470.49 613.74,469.97 613.46,470.4C613.18,470.83 613.54,471.03 614.29,471.4C615.04,471.77 613.22,471.13 613.07,471.48C612.97,471.639 612.918,471.823 612.918,472.011C612.918,472.385 613.127,472.729 613.46,472.9C614.21,473.38 615.16,473.22 615.2,473.61C615.24,474 613.93,473.61 612.99,473.61C612.05,473.61 612.16,473.41 612.08,472.35C612,471.29 612.63,470.69 611.69,469.79C610.75,468.89 610.47,468.64 610.39,468.96C610.31,469.28 610.39,469.43 610.9,470.02C611.41,470.61 611.65,471.17 611.21,471.48C610.77,471.79 609.83,472.19 609.91,472.94C609.99,473.69 610.15,473.61 610.74,474.44C611.33,475.27 610.62,475.86 610.74,477C610.86,478.14 610.51,478.93 611.61,478.74C612.71,478.55 612.99,478.26 614.09,478.54C615.19,478.82 615.87,478.78 615.87,479.17C615.873,479.669 615.964,480.163 616.14,480.63C616.3,480.87 615.83,481.42 616.14,481.89C616.45,482.36 617.21,481.89 617.33,482.36C617.45,482.83 616.46,482.88 615.87,482.44C615.28,482 615,482.09 615.12,481.06C615.24,480.03 615.12,479.13 613.9,479.17C612.68,479.21 611.85,479.17 611.9,479.92C611.95,480.67 612.53,481.1 612.29,481.85C612.05,482.6 611.29,483.07 611.22,483.94C611.15,484.81 610.59,484.81 610.08,485.04C609.57,485.27 609.69,486.04 608.78,485.99C607.87,485.94 606.78,486.42 606.02,485.48C605.26,484.54 606.69,485.87 608.11,485.01C609.53,484.15 609.37,483.94 609.65,483.11C609.93,482.28 610.55,482.96 610.71,482.05C610.954,481.27 610.741,480.415 610.16,479.84C609.49,479.13 609.57,479.29 609.49,477.48C609.41,475.67 609.57,474.48 608.94,473.73C608.31,472.98 608.35,473.22 608.82,472.35C609.29,471.48 609.65,470.54 608.94,470.1C608.23,469.66 608.11,470.02 607.94,469.63C607.77,469.24 608.73,468.49 607.47,468.41C606.21,468.33 606.6,468.76 606.47,469.28C606.34,469.8 605.37,469.47 605.37,470.42C605.37,471.37 605.37,472.19 604.74,472.55C604.11,472.91 602.89,473.61 602.97,474.28C603.05,474.95 603.64,474.68 603.64,475.11C603.64,475.54 603.75,476.41 603.44,476.57C603.07,476.779 602.914,477.238 603.08,477.63C603.28,478.07 603.91,477.55 604.15,477.87C604.39,478.19 604.34,479.09 604.78,479.13C605.22,479.17 605.49,479.21 605.37,479.76C605.25,480.31 605.29,481.1 604.78,480.98C604.27,480.86 604.03,479.56 602.97,479.29C601.91,479.02 602.14,478.97 600.44,477.95C598.74,476.93 598.79,476.84 597.09,476.81C595.39,476.78 596.38,476.17 595.36,475.11C594.34,474.05 594.69,474.95 594.36,475.31C594.03,475.67 594.24,476.1 595.03,476.81C595.82,477.52 595.27,477.75 595.86,478.42C596.45,479.09 596.57,479.33 595.86,479.21C595.15,479.09 594.86,479.84 594.48,480.21C594.1,480.58 594.05,480.44 594.08,479.38C594.11,478.32 593.73,478.47 592.94,478.38C592.15,478.29 592.47,478.9 591.4,479.21C590.33,479.52 590.81,478.86 589.63,479.21C588.45,479.56 588.8,480.16 587.63,479.88C586.46,479.6 587.75,479.37 588.1,478.7C588.45,478.03 587.98,477.36 587.27,477.79C586.56,478.22 586.72,478.58 585.27,478.58C584.472,478.513 583.679,478.769 583.07,479.29C582.295,479.689 581.449,479.93 580.58,480C579.68,480.08 580.03,480.28 579.48,480.95C579.021,481.698 578.054,481.973 577.27,481.58C576.13,481.18 576.44,480.32 576.88,479.8C577.32,479.28 577.35,479.8 578.14,479.61C578.93,479.42 579.14,479.41 579.2,478.5C579.26,477.59 578.41,477.4 577.78,477C577.15,476.6 576.88,476.57 576.64,477C576.4,477.43 576.8,478.07 576.44,478.34C576.08,478.61 574.94,479.45 574.94,479.88C574.94,480.31 575.54,481.06 575.18,481.46C574.82,481.86 574.67,482.52 573.88,482.46C573.09,482.4 572.7,481.2 571.99,481.46C571.242,481.894 570.428,482.201 569.58,482.37C568.2,482.56 567.77,483.12 567.81,483.63C567.85,484.14 567.81,485.13 567.41,485.28C567.01,485.43 566.67,485.52 565.88,484.61C565.09,483.7 564.81,482.96 563.79,483.27C562.77,483.58 563.12,484.14 563.24,484.73C563.36,485.32 563.94,484.73 563.98,485.32C563.989,485.371 563.994,485.422 563.994,485.474C563.994,485.951 563.601,486.344 563.124,486.344C563.055,486.344 562.987,486.336 562.92,486.32C562.214,486.203 561.675,485.614 561.62,484.9C561.5,484.03 560.36,484.78 560.91,483.52C561.46,482.26 561.5,481.67 562.17,481.31C562.84,480.95 563.27,480.48 563.04,479.81C562.81,479.14 562.72,480.09 562.72,478.12C562.72,476.15 562.88,477.57 563.27,477.96C563.892,478.724 564.64,479.376 565.48,479.89C566.39,480.29 566.07,481.08 567.85,481.31C569.63,481.54 570.53,481.55 571.32,480.56C571.824,480.111 572.112,479.466 572.11,478.79C572.26,477.88 572.7,478.71 571.95,477.49C571.313,476.821 570.97,475.923 571,475C570.88,473.7 570.21,473.58 569.34,472.87C568.47,472.16 567.73,472.16 567.49,471.61C567.25,471.06 568.04,471.61 568.4,471.06C568.76,470.51 568.12,470.78 567.02,470.43C565.92,470.08 565.72,469.72 565.52,468.97C565.32,468.22 565.91,469.52 566.9,469.36C567.89,469.2 568.08,468.73 567.57,468.02C567.06,467.31 566.57,467.59 566.31,467.27C566.05,466.95 567.37,466.27 566.03,466.21C564.69,466.15 566.23,465.54 564.65,465.46C563.07,465.38 561.7,464.99 561.54,465.46C561.38,465.93 560.63,466.13 560.63,466.13C560.12,466.45 558.38,466.49 558.19,466.05C558,465.61 557.48,465.46 556.02,465.46C554.56,465.46 555.02,466.05 554.6,466.46C554.18,466.87 553.69,466.57 553.69,465.98C553.69,465.39 551.56,465.67 550.26,465.98C548.96,466.29 551.01,466.73 551.68,466.65C552.35,466.57 552.31,467.2 550.3,467.44C548.29,467.68 544.94,469.44 543.13,470.44C541.838,471.2 540.369,471.607 538.87,471.62C536.87,471.86 537.1,472.49 535.95,472.72C534.8,472.95 533.9,472.33 532.95,472.72C532,473.11 532.12,472.72 530.23,472.72C528.34,472.72 528.02,473.87 527.15,474.42C525.854,475.396 524.652,476.49 523.56,477.69C522.925,478.458 522.226,479.171 521.47,479.82C520.05,481.04 520.33,482.03 521,482.74C521.67,483.45 523.56,482.34 524.15,482.11C524.74,481.88 526.52,481.79 526.48,482.23C526.44,482.67 525.81,483.05 524.48,484.87C524.233,485.21 524.023,485.51 523.85,485.77L522.67,485.77C522.9,485.22 522.27,485.22 520.54,485.42C518.81,485.62 518.61,485.97 516.54,487.15C515.322,487.77 514.439,488.899 514.13,490.23C513.883,491.015 513.435,491.722 512.83,492.28C512.328,492.493 511.873,492.802 511.49,493.19C510.86,493.82 510.39,493.66 510.7,493.27C511.01,492.88 511.53,492.16 511.17,491.85C510.81,491.54 509.75,492.32 509.44,492.04C509.065,491.671 508.605,491.399 508.1,491.25C507.47,491.08 506.99,492.52 506.64,492.48C506.29,492.44 507.39,491.53 507.11,491.29C506.83,491.05 506.21,491.73 505.34,492.29C504.551,492.976 503.546,493.365 502.5,493.39C500.84,493.51 501.59,493.2 500.73,493.04C499.87,492.88 499.46,493.75 498.95,494.3C498.44,494.85 498.32,494.38 497.81,494.22C497.293,494.165 496.772,494.262 496.31,494.5C495.92,494.62 495.4,494.81 495.44,494.22C495.48,493.63 496.11,493.12 496.07,492.68C496.03,492.24 495.44,492.6 494.81,493.16C494.18,493.72 493.91,494.65 493.47,494.81C493.03,494.97 492.72,494.34 492.88,493.95C493.04,493.56 493.51,492.95 493.16,492.8C492.81,492.65 492.57,492.17 492.21,492.05C491.85,491.93 491.07,493.16 490.63,493.71C490.19,494.26 490.32,496.94 490.16,497.61C490,498.28 488.98,498.83 488.58,500.33C488.18,501.83 486.73,502.7 485.74,503.64C484.75,504.58 483.38,506.44 482.74,506.64C482.1,506.84 481.87,505.64 481.95,504.83C482.03,504.02 481.2,504.08 480.95,503.76C480.7,503.44 481.09,501.76 480.95,501.28C480.81,500.8 479.95,500.49 480.42,499.98C480.89,499.47 481.17,498.98 480.74,498.79C480.31,498.6 479.44,498.87 478.81,498.79C478.18,498.71 478.02,499.66 477.54,500.57C477.06,501.48 476.24,501.63 475.46,503.13C474.42,504.715 473.094,506.091 471.55,507.19C470.711,507.667 470.152,508.521 470.05,509.48C469.85,510.429 469.304,511.27 468.52,511.84C467.37,512.95 467.69,513.54 467.77,514.56C467.85,515.58 468.83,515.43 467.77,517.09C466.71,518.75 467.41,518.94 466.66,519.61C465.754,520.253 464.91,520.979 464.14,521.78C463.751,522.399 462.985,522.676 462.29,522.45C461.74,522.37 461.62,522.45 460.12,523.75C459.103,524.547 458.29,525.576 457.75,526.75C457.264,527.887 456.475,528.869 455.47,529.59C454.13,530.53 454.47,529.19 453.97,529.11C453.47,529.03 452.86,529.98 452.39,530.53C451.92,531.08 450.74,531.64 450.11,532.27C449.48,532.9 449.4,533.92 447.82,535.27C446.24,536.62 445.93,538.27 444.59,543.27C443.25,548.27 438.59,563.52 438.59,563.52C447.519,500.409 491.291,447.445 551.59,426.79C551.754,427.308 552.238,427.662 552.781,427.662C552.983,427.662 553.181,427.613 553.36,427.52C555.137,426.887 556.996,426.513 558.88,426.41C559.19,426.49 556.75,427.3 555.57,427.68C554.39,428.06 552.96,429.01 554.78,428.62C556.6,428.23 561.78,426.25 563.45,425.94C565.12,425.63 566.37,426.57 567.55,425.94C568.73,425.31 570.31,425.39 571.73,424.99C573.15,424.59 570.47,423.89 575.91,424.05C581.35,424.21 582.61,423.97 582.53,423.65C582.45,423.33 585.29,423.42 585.53,422.71C585.77,422 589.79,422 587.66,421.05C585.53,420.1 581.27,421.92 581.03,421.05C581.03,420.87 581.22,420.74 581.66,420.64C583.29,420.3 587.66,420.48 589.66,420.42C592.26,420.34 592.89,420.58 592.66,420.81C592.43,421.04 589.75,421.37 589.19,422.08C588.63,422.79 586.12,423.34 584.7,423.89C583.28,424.44 584.86,424.36 585.65,424.56C586.44,424.76 585.55,427.36 586.9,427.36C588.25,427.36 586.9,427.75 587.62,429.09C588.34,430.43 588.41,431.09 591.01,430.99C593.61,430.89 594.87,429.72 597.63,428.07C600.39,426.42 598.81,426.48 598.73,425.7C598.65,424.92 597,425.15 595.11,424.76C593.22,424.37 591.95,426.4 591.48,425.7C591.01,425 591.95,425.07 592.58,424.36C593.21,423.65 593.14,423.42 595.66,423.65C598.18,423.88 598.73,423.73 597.08,422.86C595.43,421.99 593.9,422 594,421C594.1,420 593,419.5 595.57,419.5C598.14,419.5 600.93,419.27 601.49,419.9C602.05,420.53 602.67,421.55 603.69,421.08C604.71,420.61 604.09,419.82 606.45,420.08C608.238,420.132 610.014,420.397 611.74,420.87C612.84,421.35 614.18,421.03 616.39,421.42C618.6,421.81 620.8,421.58 620.73,420.95C620.66,420.32 620.09,420.32 618.44,419.95C616.79,419.58 616.44,420.5 615.76,420.34C615.08,420.18 615.76,419.78 614.89,419.51C614.02,419.24 613.63,419 613.71,418.76C613.71,418.76 613.8,418.7 613.93,418.7C614.5,418.7 616.12,419.05 618.36,419.24C621.12,419.47 622.14,419.87 623.09,419.63C624.04,419.39 623.49,420.1 626.24,420.5C628.99,420.9 631.05,421.05 633.03,421.37C635.01,421.69 635.55,422.55 636.81,422.71C638.07,422.87 638.55,423.49 640.04,423.71C641.53,423.93 643.36,425.6 644.85,425.71C646.34,425.82 645.85,426.58 647.3,427.21C648.432,427.893 649.649,428.424 650.92,428.79C653.37,429.5 656.84,429.42 657.39,429.89C657.94,430.36 659.6,431.55 660.07,431.47C660.54,431.39 660.78,429.73 662.2,430.13C663.62,430.53 663.07,431.47 664.2,431.86C665.33,432.25 666.88,433.1 667.97,433.1L668.22,433.91C667.55,434.27 667,434.78 667.67,435.25C668.202,435.559 668.797,435.743 669.41,435.79C668.98,435.79 667.77,435.79 667.51,436.16C667.25,436.53 666.37,437.11 665.94,437.54C665.515,438.323 665.414,439.243 665.66,440.1C665.9,440.54 665.54,441.36 666.33,441.6C667.12,441.84 666.25,442.47 667.95,443.69C669.65,444.91 667.45,445.06 669.36,446.65ZM662,437.54C662.32,437.07 661.92,436.83 661.06,436.36C660.2,435.89 658.45,434.36 658.45,435.41C658.45,436.46 658.77,436.59 659.56,436.83C660.35,437.07 661.71,438 662,437.54ZM656.56,451.15C656.88,450.71 654.56,450.08 653.8,450.55C653.26,450.87 654.67,451.97 655.22,452.13C655.77,452.29 656.27,451.59 656.58,451.15L656.56,451.15ZM652.3,447.5C653.3,447.16 653.17,445.9 653.01,445.5C652.85,445.1 651.95,445.19 651.89,445.5C651.83,445.81 651.12,445.58 650.65,446.61C650.39,447.22 651.3,447.85 652.32,447.5L652.3,447.5ZM651.52,449.05C652.23,448.5 651.44,448.1 650.18,447.63C648.92,447.16 649.34,448.1 649.44,448.5C649.54,448.9 648.68,447.71 648.13,448.26C647.58,448.81 646.78,448.73 647.13,449.68C647.82,451.75 649.73,451.1 650.99,450.86C652.25,450.62 650.83,449.6 651.54,449.05L651.52,449.05ZM604.92,462.34C606.92,461.51 606.45,460.8 604.92,461.04C603.39,461.28 601.84,462.57 601.01,462.1C600.18,461.63 598.41,462.81 596.16,463.4C593.91,463.99 595.22,464.82 593.32,465.77C591.42,466.72 593.21,466.71 591.32,468.01C589.43,469.31 590.61,469.2 589.67,469.79C588.73,470.38 588.16,469.3 587.54,470.85C587.22,471.65 587.66,471.8 588.96,472.03C590.26,472.26 590.02,472.15 589.67,473.22C589.32,474.29 592.27,474.28 592.86,474.28C593.45,474.28 592.63,473.57 592.27,472.39C591.91,471.21 592.98,470.26 593.69,469.2C594.4,468.14 594.28,468.49 594.75,468.37C595.22,468.25 596.53,466.12 597.95,465.22C599.37,464.32 600.19,463.52 601.02,463.76C601.85,464 602.93,463.16 604.94,462.34L604.92,462.34ZM586.82,432.06C587.3,431.59 586.7,430.4 586.82,429.57C586.94,428.74 584.1,429.34 583.98,429.1C583.86,428.86 584.98,426.74 583.98,426.38C582.98,426.02 581.14,428.04 580.43,428.16C579.72,428.28 582.33,426.38 582.33,426.38C580.347,426.361 578.391,426.85 576.65,427.8C574.05,429.34 573.57,428.98 570.73,429.46C567.89,429.94 562.81,430.05 561.15,430.17C559.49,430.29 559.03,431.23 558.55,431.22C557.362,430.826 556.078,430.826 554.89,431.22C552.89,431.92 556.07,431.35 556.31,431.82C556.55,432.29 552.76,432.65 551.57,432.53C550.38,432.41 553.47,431.35 551.57,431.23C549.67,431.11 549.33,432.06 547.79,432.16C546.25,432.26 546.61,432.41 546.25,432.16C545.89,431.91 542.35,434.05 541.52,434.64C540.69,435.23 541.28,433.46 540.58,433.77C537.982,435.254 535.293,436.573 532.53,437.72C529.22,438.9 531.23,438.19 530.05,439.25C528.87,440.31 525.73,440.97 526.26,441.74C526.47,442.05 529.99,441.03 531.26,440.55C532.53,440.07 533.45,440.38 534.69,440.44C535.93,440.5 535.69,439.55 536.47,439.84C537.25,440.13 539.19,440.08 539.19,440.38C539.19,440.68 537.94,440.44 537.29,440.73C536.64,441.02 537.94,442.15 538.95,442.51C539.96,442.87 539.3,441.74 540.55,441.86C541.8,441.98 541.79,441.86 541.55,442.86C541.31,443.86 542.02,444.52 544.27,445.33C546.52,446.14 546.4,444.46 546.81,444.1C547.22,443.74 545.75,442.15 546.81,442.74C547.87,443.33 548.35,443.39 548.81,442.92C549.12,442.61 548.54,442.26 548.26,442.12C548.91,442.26 550.94,441.81 550.17,442.8C549.4,443.79 546.26,444.93 546.85,445.28C547.44,445.63 551.94,443.6 551.94,443.6C551.94,443.6 553.6,443.27 554.66,442.92C555.72,442.57 555.37,440.92 555.37,440.92L556.64,441.98C556.64,441.98 555.13,442.69 555.96,443.44C556.79,444.19 557.96,442.34 557.96,442.34C557.96,442.34 558.67,443.64 559.14,443.41C559.61,443.18 560.21,442.1 560.21,442.1C560.21,442.1 560.21,443.52 560.92,443.4C561.63,443.28 562.22,441.4 563.4,441.75C564.58,442.1 564.47,441.87 567.3,441.16C570.13,440.45 568.72,440.92 569.43,440.21C570.14,439.5 571.43,440.09 575.35,440.33C578.55,440.52 577.21,440 577.1,439.94L577.24,439.94C578.177,440.471 579.233,440.756 580.31,440.77C582.56,440.89 581.14,439.59 579.49,439.11C577.84,438.63 578.49,437.81 579.72,438.41C580.95,439.01 581.26,438.88 581.38,438.05C581.5,437.22 582.21,435.68 582.21,437.1C582.21,438.52 584.21,437.58 585.52,437.1C586.83,436.62 585.87,435.45 585.64,434.74C585.41,434.03 586.58,434.03 586.16,433.32C585.74,432.61 584.1,433.91 583.86,433.75C583.62,433.59 585.16,432.75 585.28,432.02C585.4,431.29 586.37,432.53 586.84,432.06L586.82,432.06ZM534.92,452.28C535.41,451.46 534.31,451.1 533.72,450.63C533.13,450.16 533.83,450.04 534.54,449.8C535.25,449.56 535.02,448.62 533.24,448.62C531.46,448.62 532.65,450.27 532.06,450.62C531.47,450.97 531.23,449.91 529.81,450.62C528.39,451.33 528.39,450.97 528.04,452.04C527.69,453.11 526.15,453.1 526.26,454.28C526.893,454.977 527.658,455.541 528.51,455.94C529.553,456.235 530.657,456.235 531.7,455.94C532.91,455.71 534.44,453.11 534.94,452.28L534.92,452.28ZM517,473.81C517.41,473.51 517.06,473.22 516.41,472.59C515.76,471.96 515.52,472.09 514.28,472.59C513.04,473.09 513.21,473.04 512.86,472.69C512.51,472.34 512.33,473.1 511.86,473.57C511.069,474.193 510.424,474.982 509.97,475.88C509.32,477.24 509.32,475.52 508.79,475.46C508.26,475.4 507.96,477 507.07,478.24C506.18,479.48 506.19,479.24 506.42,479.72C506.65,480.2 506.54,480.37 505.77,481.14C505,481.91 504.77,482.68 503.99,483.09C503.21,483.5 503.41,482.32 503.11,482.03C502.81,481.74 502.52,482.44 501.69,483.92C500.86,485.4 500.75,484.1 499.5,484.57C498.25,485.04 499.09,485.75 499.15,486.99C499.21,488.23 498.68,487.65 498.56,487.17C498.44,486.69 497.08,487.23 496.25,487.59C495.42,487.95 494.01,487.45 494.89,488.42C495.54,489.13 496.19,489.72 496.49,489.36C496.79,489 497.02,489.3 497.97,490.13C498.92,490.96 498.62,491.79 500.21,492.08C501.8,492.37 501.52,491.85 501.34,491.08C501.16,490.31 501.87,490.6 502.88,490.49C503.777,490.272 504.544,489.692 505,488.89C505.42,488.3 505,487.71 504.41,487.94C503.82,488.17 503.76,487.71 504.41,487.17C505.06,486.63 506.48,485.1 507.07,484.63C507.636,484.041 507.955,483.257 507.96,482.44C508.08,481.56 511.1,478.89 511.39,478.54C511.68,478.19 511.04,477.42 511.51,477.3C511.98,477.18 513.76,476.82 514.23,476.77C514.7,476.72 515,476.12 514.53,475.41C514.06,474.7 513.88,474.41 514.35,473.93C514.82,473.45 516.59,474.1 517,473.81ZM506.83,477.24C507.42,476.53 506.95,476.47 506.53,475.88C506.11,475.29 504.4,475.88 503.1,476.41C501.8,476.94 501.92,477.06 501.68,478C501.44,478.94 501.03,478.48 500.5,478.07C499.97,477.66 499.14,479.25 497.96,479.9C496.78,480.55 496.72,479.9 496.96,481.38C496.828,481.665 496.932,482.007 497.2,482.17C497.67,482.43 498.8,481.73 498.97,482.5C499.14,483.27 499.62,482.86 500.51,482.5C501.539,481.916 502.443,481.134 503.17,480.2C503.562,479.619 504.259,479.318 504.95,479.43C505.41,479.37 506.24,478 506.83,477.24Z" style="fill:rgb(3,60,90);fill-rule:nonzero;"/>
                    </g>
                    <g transform="matrix(1,0,0,1,113.29,142.83)">
                        <path d="M674.72,432C747.061,463.939 787.964,542.405 772.72,620C764.487,661.765 740.788,698.923 706.39,724C638.208,773.803 542.677,765.405 484.23,704.47C425.783,643.535 484.23,704.47 484.23,704.47C453.884,672.963 436.94,630.864 437,587.12L437,586.4C437.239,514.336 483.468,449.966 551.68,426.72C561.408,423.4 571.42,420.98 581.59,419.49C589.815,418.284 598.117,417.679 606.43,417.68C608.95,417.68 611.457,417.733 613.95,417.84C634.911,418.739 655.521,423.541 674.72,432Z" style="fill:none;fill-rule:nonzero;stroke:rgb(3,60,90);stroke-width:5px;"/>
                    </g>
                </g>
                <g id="center2_copy_3">
                    <g transform="matrix(1,0,0,1,113.29,142.83)">
                        <path d="M1044.49,701.7C1017.4,864.15 864.23,988.6 679.34,988.6C475.34,988.6 309.92,837.07 309.92,650.16C309.92,602.138 320.955,554.752 342.17,511.67L342.7,511.93C341.401,514.593 340.395,517.389 339.7,520.27C334.491,541.612 331.806,563.492 331.7,585.46C330.77,737.33 453.13,861.21 605,862.15L606.7,862.15C758.58,862.15 881.7,739.03 881.7,587.15C881.7,579.457 881.387,571.843 880.76,564.31C878,530.49 837.05,515 812.85,538.74C751.719,598.651 666.033,626.774 581.29,614.74C574.66,613.8 574.91,604.19 581.58,603.6C693.35,593.69 791.91,515.91 822.41,401.1C825.067,391.115 827.164,380.989 828.69,370.77C837,315 906.6,294.32 943.49,337C1030.03,437.34 1067.48,571.212 1045.56,701.89L1044.49,701.7Z" style="fill:rgb(170,152,104);fill-rule:nonzero;"/>
                    </g>
                    <g transform="matrix(1,0,0,1,113.29,142.83)">
                        <path d="M342.17,511.67C320.955,554.752 309.92,602.138 309.92,650.16C309.92,837.07 475.31,988.6 679.34,988.6C864.23,988.6 1017.4,864.15 1044.49,701.7L1045.56,701.88C1009.55,915.171 823.01,1072.87 606.7,1072.88L606.44,1072.88C360.68,1072.88 161.44,873.65 161.44,627.88C161.279,517.623 202.257,411.177 276.31,329.49C310.93,291.2 374.47,306.49 388,356.3C418.209,467.456 515.098,548.445 629.85,558.46C635.85,558.99 636.18,567.71 630.19,568.6C548.924,580.541 466.433,555.547 405.46,500.51C385.25,482.26 354,489 342.7,511.93L342.17,511.67Z" style="fill:rgb(3,60,90);fill-rule:nonzero;"/>
                    </g>
                    <circle cx="906.86" cy="367.28" r="65" style="fill:rgb(170,152,104);"/>
                    <circle cx="527.63" cy="370.28" r="65" style="fill:rgb(3,60,90);"/>
                </g>
                <g id="side_two_copy_3">
                    <g transform="matrix(1,0,0,1,113.29,142.83)">
                        <path d="M1082.71,304.66C1142.22,380.34 1178.44,475.22 1178.44,578.96C1178.44,792.3 1028.32,970.58 827.94,1013.91C961.51,937.11 1051.44,792.99 1051.44,627.91C1051.44,536.64 1024.44,451.35 977.35,380.74C970.238,370.066 966.441,357.522 966.441,344.696C966.441,309.038 995.783,279.696 1031.44,279.696C1051.46,279.696 1070.4,288.947 1082.71,304.74L1082.71,304.66Z" style="fill:rgb(3,60,90);fill-rule:nonzero;"/>
                    </g>
                    <circle cx="1069.74" cy="335.69" r="65" style="fill:rgb(3,60,90);"/>
                    <circle cx="369.74" cy="335.69" r="65" style="fill:rgb(170,152,104);"/>
                    <g transform="matrix(1,0,0,1,113.29,142.83)">
                        <path d="M246.11,344.63C246.137,357.532 242.305,370.151 235.11,380.86C188.11,451.42 161.46,536.71 161.46,627.86C161.46,793.02 251.46,937.16 385.03,1013.95C181.116,969.669 34.368,787.667 34.33,579C34.33,475 70.63,379.7 130.47,303.92C142.8,288.597 161.442,279.67 181.11,279.67C216.768,279.67 246.11,309.012 246.11,344.67L246.11,344.63Z" style="fill:rgb(170,152,104);fill-rule:nonzero;"/>
                    </g>
                </g>
            </g>
        </g>
    </g>
</svg>
