<svg id="gmh_logo_light" xmlns="http://www.w3.org/2000/svg" viewBox="0 0 1144.11 945">
  <title>gmh_logo_light</title>

  <div>
  <g id="gmh_logo_light" data-name="gmh logo light">
    <g id="earth" data-name="earth">
      <path d="M551.56,475.35c.9.71,1.3,1.49.35,2.56s-4.1,1.62-6.39,2.17a6.87,6.87,0,0,0-4,3.07,8.39,8.39,0,0,1-2.17,2.13c-.86.55-.59,2.05-.59,3.08s1.7.63,3.83.75,1.85.71,2.83.67.48,1.26.95,1.45,1.38.67.71,1.19-.24-.44-1.54-.48-1.46.56-2.09.6-1-.12-1.22-1-2-1.3-3.43-1.18-1.58,1-1.93,2-.08,1.34-1.1,2.4-1.42,1.58-1.94,1.46.12-2.09-.27-2.64-2.37.71-3.87,2.09-2.32,3.39-3,3.55-.59-.75-1.07-.83-.47,1-1.5,1.1-1.45-.27-1.06-.71a.78.78,0,0,0,0-1.22c-.39-.47-2.8-.39-4.57-.35s-1.46-1.15-1.38-1.66,1.42-1,.47-1.06-2.44.39-2.88,0,.67-.59.48-1.07a2.88,2.88,0,0,1-.12-1.69,3.15,3.15,0,0,1,1-1.78c.28-.08,0,1.27.59,1.19s.56-.67.52-1.27.59,0,1.73-.74.95-.83,1.38-1.74,2.13-1.06,2.37-1.62l1.18,0a11.3,11.3,0,0,0-1.22,2.41,16.18,16.18,0,0,1-2.53,3.39c-.78.83-.47,1.06,0,1.46s1.42-.55,2.05-.87,1.19.75,1.86.63,3.62-2.76,5-3.74,1.26-1.23,3-1.3,1-.52,1.81-.87.83-.16,1.62-1.15.35-1.65.24-2.76,1.77-1.89,4.06-3.19,3.62-1.1,5.2-1.26,2.29-1,3.71-2.05S550.65,474.64,551.56,475.35Z" transform="translate(-34.33 -127.86)" fill="#033c5a"/>
      <path d="M541.48,533c.06.47-1.06.23-2.25.29s-1.06.24-.88,1.12-.53,1.37-1.84,2-1.24-.42-1.36,1.06-.11,1.6,1,2.84a6.53,6.53,0,0,1,2,3.78c.41,2,1.06,1.9,2.07,3s1,1.71-.59,3.61a3.65,3.65,0,0,1-4.08,1.36c-.77-.24-1.66-1.13-3.14-1.48a4,4,0,0,1-2.72-2c-.82-1.13-1.65-1.6-2.18-2.43s.23-1.42-1.13-1.24-.65-.3-2.54-.83-2.37.06-4.55.48-2.72-1.19-3.61-1.48a.66.66,0,0,0-.83.26h0c.26-.23-.66-1.32-.7-2.15a4.34,4.34,0,0,1,.53-2.89,7,7,0,0,0,1-2c.35-.77,1.77-.24,2.19-.54s-.24-.94.53-1.65.41-1,1.36-1.18,1.48.17,2.31-.77-.77-1.84.53-1.84a4.64,4.64,0,0,0,2-.41c.47-.12.12-1.54,1.24-1.12s2.37.76,2.31,1.12-1.13.18-.83.89,2.72,1.24,2,1.95-1.72-.36-2,.65.71,1.06.83,2.13-.71.77-.3,1.77,1.06-.35,1.95-.23,1.07-.36,1.66-.48,1.65.48,2.24.42.3-1.25-.41-1.3-1.24,0-1.3-.42-.71-1.77-.59-2.25.53,0,2.19-.59,1.12-.29,2.6-.23,1.83-.12,2.48.23S541.42,532.47,541.48,533Z" transform="translate(-34.33 -127.86)" fill="#033c5a"/>
      <path d="M571,544c.36.94,1.66,1.89.47,2.24a22,22,0,0,0-3.31,1.78,2.47,2.47,0,0,0-.33.19,3,3,0,0,0,.69-1.17c.47-1.39-.59-1.74-1.42-2s-1.07-1.66-2.25-1.06-.83,1.89-1.3,2.24-.71-1.42-1.54-.35,1.36,2,.86,2.6-1.16,2.84,0,3.31,2,2,2.69,1.42c.05,0,.08-.07.1-.07-.16.19-2.07,2.16-1.16,4,1.06,2.13.23-3,2.24-1.89s.83,3,1.42,3.67.83,1.06-.83.71-2.24,0-3,1.18-.48,1.42.35,1.54-.59,1.53.48,2.48.59.71.11,2.13-.94,3.67-.35,4.38.12,1.89-.59,1.3-.59-1-2-.59-2.25,1.5-3.08.75-.94,0-2.48-1.7-2.76-1.89-3-4-.86-1.89.67-4,.59-2.84,1.9-3.2,2.36-.82,1.3-1.18-1-2.32-1.9-3.67c-1.8-2.77-2.36-4.25-1.65-5.44a3.52,3.52,0,0,0,.67-3.07c-.32-1.07-1.46-.83,0-2.25s1.58-3,2.64-2.36,2.37,1,3.07-.13,1.07-.58,1.78-1.17.35-.71,1.54-1.07.23-.71,1.89,0,1.65.83,2.6.24.83.94.71,1.89-1,2.25.08,2.48S570.64,543,571,544Z" transform="translate(-34.33 -127.86)" fill="#033c5a"/>
      <path d="M522.5,561.75c.47-.12,1,.47,0,1.41s-1.18,1.25-1.54,3.2-.12,1.71-1.12,2.95a27.41,27.41,0,0,0-3.49,4.68c-1.89,3.07-2.72,2.89-3.61,3.19s-1-.59-2.07-.65-1.06-.36-1.54-1.24a3.43,3.43,0,0,0-2.42-1.89c-1.12-.18-1.66-.24-2.25.47s-1.36.29-2.24.29-.54-.76-.66-1.3-1.36-.94-2-1.24.24-1.12,0-1.3-.53-.3-1.42-1a11.29,11.29,0,0,0-2.06-1.3c-.66-.29.17-1.36,0-1.83s-.83-.47-1.48-.71a3,3,0,0,1-1.48-2.13c-.24-1,.12-1.54-1-2.19s-.88-1.24-2.13-1.12-1.18-.47-2,.3a4.91,4.91,0,0,0-1.71,3.13c-.42,1.83-2.19,1.24-2.66,1.24s-.24-1.65-1-2.6-.53-1.36-1.18-2.6-1-.83-1.36-2.31,1.06-2.78.47-3.31-.53-.89-1.12-2-.71-1.66-1.54-1.89-.29-1-1-2,.71-1.18-.12-2.24,0-2.13,1.42-2.49,1.89-1.53,1.77-3.07.95-2.72.95-3.19.59-1.78,0-2.49-2.13,0-2.61-.83-.59-2.13-2-2.48-.35-1.66-1.89-3.08-4.61-1.89-6.15-2-.23-1.77-1.18-3a2,2,0,0,1,0-2.72l-.12-.59c-.12-.6,1-.83,1.72-.89s.23,1.3.82,2.3.77.77,1.42.12.65.18,1.42.12,1.36-1.6,2.07-1.54.89-.53,1-1.47,1-1.36,2.3-2.25,1.13-1.13,2.43-.83,2.19.77,3.25-.24.41-2.54,1.77-2.6,1.42.06,1.66,1.36.65,2,1.72,1.89.76-.76,1.36-.35,1.47-.12,2.18-.71.65-.06.54,1.77-.12,1.72-.95,2.55-1,1.18-.77,2.13a8.51,8.51,0,0,1,.3,3.31c-.18,1.24-.65,1.24.23,2.9s.3.53-.12,2.24,1.07-.23.71,1.89.71,3.08-.35,4.85-1.54,2.78-2.6,2.07-1.89-.35-2.07-1.3-.53-1.53-1.66-1.53-.12,1.95-.06,3.72.24,1.48.95,2.6.53,1,1.6-.83,1.18-1.53,1.47-1.53a2.65,2.65,0,0,0,1.6-.12,6.07,6.07,0,0,0,2.54-2.48c.36-.89-.06-1.54.6-2.25s.41-1.24,1.06-.36.59,2.84,1.12,2.78.42-4.14.24-5.08-.95-.89-1.12-1.48.71-.71.94-1.13-.23-1.12-.83-1.71-.35-2.72-.23-3.61,1-1.48,1.24-2.42-.71-1.24-.53-1.84.59-1.12,1-2.18a2.68,2.68,0,0,1,1.9-1.9c.94-.23.94.42.7,1.19s-.35,2-.11,2,.41-1,.71-1.07.53.83.29,2.49-1.77,1.06-1.71,2.07.65,1.65.94,4.14.59-.48.71,2a18.05,18.05,0,0,0,.48,4.08c.23,1-1.07.88-1.84,3.13s-1.48,1.3-1.36,2.9-.77,5-.12,5.32,1.31,0,.83.53-.94,0-1.18.89.3,1.24,0,2.13-1.06,1.48-.41,1.66.59-.3.41.29.65,1.66,1.06,1.54.36-1,.77-1.3-.17-1.54-.06-1.89,1,1.18,1.3.85-.17-1.21.3-1.56.65.82,1.12.53.24-1.18.89-1.24.53-.71.24-1.36-.83-.54-.83.47-.47.29-.77-.59-.06-1.13.53-1.3.95-2.72,1.36-3.49.65.18,1.78.29,2-.77,2.72-.94.12,1.42,1.71,2.95,1.72-.06,2.49-.23.47.12,2.3.83c.48.19.73.21.82.13h0a11.53,11.53,0,0,0-.77,1.57c-.53,1.06-1.3.18-2.72-.53s-1.71-1.48-2.42-.83a3.58,3.58,0,0,0-1.42,1.95c-.24,1-.77.42-1.13.71s-.41.71.42.83.41-.77.88-1.12.66.11.18,1.65-.71,1-1.65,1.27-.54.92.29,1.45.89.53.48,1.3a5.27,5.27,0,0,0-.6,2.84c.12.89,1.13-.41,1-.06s-.06,1,1,2-.17,1.3.48,1.48,2.36,1.54,2.84,1.24-.24-1.65.77-1.65,1.89,1.3,2,2.72,1.59,1.65,3.25,1.77,1.3-.47,2.25-.94.47.65,1.18,1.18S522,561.86,522.5,561.75ZM489.11,522a3.2,3.2,0,0,0,.67-1.94c0-.55-.48-1-.95-.63s-1.63,1.14-1.53,2.33c.08,1-.32,1,.23,1A1.77,1.77,0,0,0,489.11,522Zm-2,3.39c.59-1-.6-1.54-1.31-1.9s-1.18,2-2.48,4-1.58,1.32,0,1.77c1,.28,1.14-.08,1.66-.75S486.54,526.32,487.14,525.38Z" transform="translate(-34.33 -127.86)" fill="#033c5a"/>
      <path d="M525.63,642.15l-.9,0c-.11-.23-.23-.46-.34-.67-.47-.89-2.42-2.84-3.07-4.67a10.37,10.37,0,0,0-4.2-4.67c-1.66-1-2.13-3-2-5.09a10.69,10.69,0,0,0-1-5.62,4,4,0,0,0-2.13-2.3c-.59-.36.12-5.33.18-6.27a26.09,26.09,0,0,0-.24-4,6.36,6.36,0,0,0-1.59-3.43c-.83-1.13-.42-2.72-.06-3.79s.29-1.59-.36-2-.59-1.42-.53-3a14.19,14.19,0,0,0-.77-4c-.24-1.12.18-3.19-.06-5.08a28.25,28.25,0,0,1-.59-4.26c-.06-2.25.12-3.43.53-3.43s.3,3.08.42,5.09.77,2.89,1.36,2.89.65-1.18.94-1.77,1.48-2.78,1.84-2.54-.24,1.48-.89,3.07-.12,2.49.95,5.19a36,36,0,0,1,2.12,8.65c.24,2.42.71,1.77,1.66,4.14s.83,4.2.59,7-.18,3.72.71,4.49a7.13,7.13,0,0,1,2.54,3.61,40.21,40.21,0,0,0,2.49,6.39c1.42,3.13,1.83,4.49,1.36,6.32a6.52,6.52,0,0,0,0,4.38c.53,2,.65,1.18.77,4.2A3.1,3.1,0,0,0,525.63,642.15Z" transform="translate(-34.33 -127.86)" fill="#033c5a"/>
      <path d="M478.23,696.24a74.44,74.44,0,0,1,5.95,8.2A168.83,168.83,0,0,1,437,587.12v-.69a72.87,72.87,0,0,0,1.34,7.86c.47,2.84.47,4.57,1.18,5.52a6.9,6.9,0,0,1,1.74,3.23c.47,1.89,1.73,3.79,2.68,3.79s.86,1,2.05,2.36,1.49,2.68,1.73,5.21.16,2.44,1.18,4.25,1.58,1.74,2.84,3.47,1.58,5.37,1.82,7.18-.71,1.81-.48,3.31-.08,2.76,0,5.13a11.22,11.22,0,0,0,1.66,4.81c.24,1.34,1.1,3.86,3.39,9.54s4,11.51,5.05,14.9.94,2.84.63,4,1.18,1.73.86,3,.08,2.36,1.42,4.57,3.31,5.28,5.29,8.36a18.29,18.29,0,0,0,4.17,4.65C475.54,692.46,475.86,693.72,478.23,696.24Z" transform="translate(-34.33 -127.86)" fill="#033c5a"/>
      <path d="M499.2,667.9c.24.71,1.18,1.77.83,2.72a5.71,5.71,0,0,1-1.3,1.65c-.12.24,1.41.79.82,1.42-.76.83.24-.71-.82-.24s-1.76-.86-2.49-1.18c-1.21-.53-1.18-1.3-1.18-2.84s-.24-3.43.59-3.43S499,667.19,499.2,667.9Z" transform="translate(-34.33 -127.86)" fill="#033c5a"/>
      <path d="M729.69,675.72c-.26.14-2.86,1.66-3.76,2.11s-1.06-.12-2.48.95-2,1.77-3.25,1.89-2,1.54-2.4,1.18-.5-1.06-2.16,0-3.93,1-4.73,2.88,1.18.55,1.77.79,1.07-.24,1.66-.78,2.36-.17,3.46,0,2.33-1.7,3.67-1.7,1.74-1.18,2.8-.94,3.55-1.66,4.5-2.49,2.48-1.41,3.07-1.89-.35-.71-1.53-.59-1.9,1.3-2.61,1.3S729.42,676,729.69,675.72Zm46.19-88.6A170,170,0,0,1,772.7,620v0c-.14.31-2.44,5.38-3.28,5.68a7.42,7.42,0,0,0-2.75,3.16,17.6,17.6,0,0,0-1.11,3.94c-.39,1.58-.55,2-1.26,1.73s.47-2.91-.39-2.36a5.68,5.68,0,0,0-2.53,2.43c-.47,1.19-2,2.61-1.65,3s1.42-.71,1.65-.55,1-.21,1.5-.9-1.42,2.63-1.34,3.1,0,2.13.32,2,.78-2.13,1.26-2.21a9,9,0,0,0,2.68-2.13c.87-1,.24,1.42.4,2s-1.66,3.86-1.43,4.41,1.7-3.35,2.67-3.21a169.44,169.44,0,0,1-9.34,22.67,7.9,7.9,0,0,1,.44-2.7,28.76,28.76,0,0,1,1.7-3.59c.51-1,1-1.85.63-1.81s-1,.71-1.89,2.52-1,1.38-1.78,1.7-.35,1.53-.67,2.84-1.85,2-2.88,3.46-.86,1.58-2,4.46a8,8,0,0,1-2.36,3.75c-.79.9-.32-.56-.43-.71s-.56.39-1.5,1.49a18.41,18.41,0,0,0-3.24,5.21c-1.06,2.56-1.65,2.76-2.36,3.11s-.47,1.46-1,2.53-.55-.36-.79-.32-.71.32-2,2.44a42.45,42.45,0,0,1-5.44,7.57c-2.72,3-7.33,6.51-8.63,7.69s-1.54,2.6-2.37,2.13-.94,1.89-1.53,1.77-1.42.71-2.84,2.37-1.54,2.13-1.78,3.43-2.72,3.67-4.14,6.15a32.13,32.13,0,0,1-4.9,5.7h0a169.49,169.49,0,0,1-201.61-1.32l.14-.19c.35-.53,5,2.6,6.21,2.66s1.12-.53,1.12-1.12,1.24-.24,1.36-.77-2.19-2.78-1.72-3.08,3.85,1,3.73,0-1.54-2-2.13-3.31-2.42-3.55-2.72-4.14.47-.47,2.19-.59.83-1.06,2.31-1.24,4.19.94,6,0,1.36-3.31-.18-5-.71-2.9-1.42-4.85a12.88,12.88,0,0,0-3.25-4.55c-1-.89-.3-2.9-1-3.49s-.17-2.13-.71-3-1.3-1.24-1.65-2.13.65-2,1.48-2.89,1.77-2,1.77-2.84-.3-.65,1.48-1.07,3.72-2.3,5.85-4.2a18.38,18.38,0,0,1,7.34-3.54c2.48-.71,4.08-2.07,6.15-3.91a26.12,26.12,0,0,0,5.08-6c.95-1.71,1.3-2.72,2.07-3.25s.89.06.89-.47.06-.89.71-1.13.71-1.48.89-3.37a7.67,7.67,0,0,1,1.06-3.72c.41-.48-.83-1.54-1.77-1.78s-1.6,1.13-3.49,1.3-1.6-.23-3.43-.53a21.9,21.9,0,0,0-4.44,0c-1.54,0-1.71-1-2.84-1s-.88.48-2.89.48-3-1.72-3.55-2.78-.77-.95-1.19-1.07-.59-.59.36-1.53a1.92,1.92,0,0,0,.16-2.35l.9,0c.77,1.72,3.29,1.17,5.21.67a8.09,8.09,0,0,1,4.49-.05c1.13.23,1.78-.36,2.72-.95s1.89.88,2.72.94.83-.94,1.89-1.36,3.61-.23,5.68-.35,3.14-1.95,4-3.08,4.32-.83,5.38-.88,2.67.47,3.26-.83.41-1.07,1.83-1.24,1.42.05,1.83-1.36,1.66-.89,3-1.07,1.3-2,1.48-3.25a1.86,1.86,0,0,1,1.71-1.83c1-.24.89-.18,1.78-1.42a38.23,38.23,0,0,0,2.78-3.73c.29-.77-.12-1.42-1.24-3s-1.54-2.3-2.67-2.48a5.77,5.77,0,0,1-5-3.73c-1.13-3.07.23-5.32-.48-5.26l-.34-1.46a1.26,1.26,0,0,0,.64-.19c.47-.3-.06-1.42.95-.77a4.71,4.71,0,0,1,1.71,3.6c.12,1.54-.47,1.19,1.48,1.48s3.72,1,5.38,1.24,1.6,1.25,3.9,1.36,6.35-.69,8,.32,3.78.57,5.52.18a5.06,5.06,0,0,1,2.76,0c.78,2.6,3.47,4.65,4.73,5.6a28.5,28.5,0,0,1,2.84,2.6h3.31s-.55,1.1-2.68,1.5c0,0-.32,2.76,3.15,4.25s5.28-.08,5.68-.94-.08-3.08,1.1-2.92-.87,1.1,0,3.71.52,1.73.38,4.1a10.73,10.73,0,0,0,1.75,6.46c1,1.26.16,2.84,1.58,5.05s3.78,6.23,3.78,7.88-.23,3.31,1.5,4.26,2.05,2.29,2.44,3.63.56,3.23,2.37,5,1.42,2.05,2.29,2.25,1.14-.31,1.53-.39.67-.16,1.11-1.34.27-1.5,1.54-1.54.94-.28,1.26-1.46.23-1.73,1.18-1.93,1-1.11,1.06-2.8-.15-1.85.75-2.84.2-4.69,0-6.7-.75-4-.08-4.18a7.3,7.3,0,0,0,3-1.42,5.86,5.86,0,0,1,2-1.54c1.22-.63,1-2,2.05-2.76a14.4,14.4,0,0,0,4.5-4c2-2.64,2.6-3.82,4.57-5.08s3.47-2.13,3.23-3.91-.27-2.56,1.3-3.07,5.92-.51,7.69-2.41,1.22-3.43,1.22-3.43,2.68.79,3.47,2.21-.16,2.72,1.85,3.86,2.72,1.46,3.55,1.54-.43,1.18,1,2.49,1.69,1.65,2,3-.08,2.88,0,4.06-.16,2.57,1,2.33,1.46-.91,1.82-1,.35,1,1.26,0,.24-.9,1-1.5.32-1.69.87-1.57,1.18.55,1.34-1,0-2,.47-1.1.87,2.36,1.62,2.64a2.85,2.85,0,0,0,.47,1.89c.6.63.28,1.07.32,2s.83,1.11,1.14,1.7,0,1.69.71,2.09.71.43.71,1.5a5.15,5.15,0,0,0,.51,2.76c.44.55.6,2.12.2,2.2s-.43,1.07-.31,2c.06.51.14,1.21.18,1.78a2.21,2.21,0,0,1-.07,1.06c-.19.2-.35.59-.19,1.78s.39,1.49.94,1.53,2.13,1.42,3.16,2.84,2.28,3.16,2.52,4.5a7.55,7.55,0,0,0,4.57,5.75c3.47,1.5,4.66,1,4.74-.08s-1.74-2.84-1.82-3.7-.39-2.05.16-2.84-.24-2.76-1.66-3.63-3.47-2-4.25-1.81-1.11.55-1.74-.24-1.1-.47-1.06-1.65-.08-1.3-.71-1.38-.48-1-.44-1.62-.31-.67-.67-.36-1.09,1.2-1.21-.14c0-.07,0-.16,0-.25a7.14,7.14,0,0,1,.4-3.39,4.48,4.48,0,0,0,.15-2.56c0-.59.75-.2.67-1.82s-.75-3.78.24-4.25,2-1.19,2.21-.6a4.26,4.26,0,0,1-.08,2c-.08.55-.12.86.59.63a6,6,0,0,0,1.81-1.11c.56-.43,1,.59,1.58.83s1.18.24,1.3.91a4.59,4.59,0,0,0,1.11,1.85c.39.47.51-.43.7-.55s.87,1.5,1.35,1.5,1.26-1.26,1.73-1,.67,1.26.63,3-.08,2.17.47,2,.71-1.42,1.5-2,.91-1.3,1.46-1.77,1.3-.32,1.42-1.23,0-2.28,1.1-2.91.87-.32,2-1.86,2.05-1.65,2.13-2.84a21.63,21.63,0,0,0-.51-6.7,11.77,11.77,0,0,0-3.78-6.31c-1-.9-2-.59-3.2-1.53s-2.32-2.41-3.31-2.76-.59-1.11-.63-2.05a3.85,3.85,0,0,1,.63-2.76c.75-1.23.87-2.88,1.34-3.71a11.92,11.92,0,0,1,2.56-2.8c1-.79.79-.43,1.7-.79s.91-1.22,1.3-1.22.24.36.28,1.46.35,2.52,1.18,2.29.71-.87.75-2.13-.2-2,.43-2.17a7.66,7.66,0,0,0,2.41-1.74c1-.94,2.52-1.65,2.68-2.68s-.32-2.13,0-2.09,1.54.24,1.93-.55,1.1-2.09,1.69-2.32,1.5-.67,1.58-1.27.12-2.56.55-2.83A3,3,0,0,0,731,587c.07-1.07-.2-1.34.43-2a3.21,3.21,0,0,0,.55-2.57c-.12-.71-.2-1.14.28-1.57s0-1.27-.24-1.82-.39-2.2,0-2.6,0-1.18.12-1.42a1.79,1.79,0,0,0,.08-1.93c-.55-1-.21-1,.25-1.7a1.36,1.36,0,0,0,0-1.77c-.41-.59-.05-1.77-.09-2.29s-.44-.43-.44-1.22.12-2.09-.35-2-.59.71-1,.67-.47-.59-.87-.35-.27.82-.59.74-.19-1,.28-1.73,1.14-1.14.27-2-1.38-.59-.55-1,.08-1.14-1.34-2.09-1.93-.86-3.43-2.76-1.22-1.26-2.17-1.49a2.24,2.24,0,0,1-1.81-2.53c0-1.69,0-1.26.47-1.85s.28-1.42.32-2.29-.44-.82.71-2,1.38-1.73,1.3-2.68-.55-.75-.83-.43-.63,1.3-1.42,1.18-1.69-.63-2.32.51-.63,1.54-.32,1.7.51,1-.08,1.06-1.22.24-1.34-.82-.71-1.38-1.14-1.07-.91.79-1.62.36a2.25,2.25,0,0,1-1.18-1.82c0-.71,0-.6.91-1.36s.47-1.32.27-1.87a1.33,1.33,0,0,1,.24-1.74,2.47,2.47,0,0,0,.71-2.48c-.28-.87-.67-1.73.39-1.89s1.5.63,1.62,1.42-.24,3,.08,3.31a.94.94,0,0,0,.86.24c.12,0-.19,1.49.2,1.49s.67-.23.83-2.2.12-1.78.63-2.29.55-1.82,1.18-2,1.86-.22,1.93.41.32,1.58.83,1.66c0,0-.12,2.25.63,2.56s1.54.32,1.74-.2.55-.51.83-.23a5.52,5.52,0,0,1,1.38,2c.35,1,1.14,1.5,1.45,2.05s.32,2,.91,2.84.24,1.3.59,1.77a.64.64,0,0,0,1.15-.16c.19-.51,0-1.1.45-1.18s.33-1,.53-1.22.4-.2.44-2.52a7.4,7.4,0,0,0-1.86-5.41c-1.42-1.85-2.44-1.8-3.11-2.45s-.79-1-1.82-1-1.65,0-1.73-1.19a11.58,11.58,0,0,1,.35-3.35A4,4,0,0,0,725,525c-.75-1-1.14-.87-1.18-2.6s-.47-1.62,0-1.73.75-.64,0-1.74-.55-1.85-.28-1.77,1.23,1.81,2,.19.47-3.62-.2-5.75-.91-2.53-1.74-4.93-2.48-4.46-2.64-5.48a9.3,9.3,0,0,0-.94-2.44,12.25,12.25,0,0,0-2.69-4.26c-1.49-1.54-3.94-3.71-4.33-4.62a6.7,6.7,0,0,0-2.21-2.6c-1.14-.86-1.73-1.42-1.46-1.73s.83,0,1.74.9,2.28,1.86,3.51,3,4.45,4.73,5.2,5.28.91.67,1.14,1.07a24,24,0,0,0,3.91,4.3c1.22.78.94,0,.27-.71s-.91-1.19-.55-1.07,1.1.75,1.22.28-.94-1.19-1.42-1.66-.75.12-1.81-.75a20.23,20.23,0,0,1-2.56-3.11c-1-1.22-1.07-1.26-.59-1.54s1.22-.35-.4-1.26a28.08,28.08,0,0,1-6.23-4.22c-1.93-1.93-4.81-4.14-5.4-4s-.75.31-.12.75,1.54,1.22,1.5,1.81-.2,1.18-.91.79-2.05-1.38-2.44-.32,0,.71.35,1.46.56,1.42.2,1.46-1,.4-1.58-.55-.9-.91-1.18-.83-.47,1.11-1.18.83-1.22-4-2.13-5.41-1.22-2.87-2.4-4.88-2.84-3.82-2.65-5.05-.08-1.42.71-1.61.67-.91.79-1.54-.75-2.05-.23-2.52.55-.75,1.26-.2,1.06.71.86-.67-.15-2.52-1.3-2.52-1.34-.56-2.72-2-3.75-3.85-3.51-5.09c.08-.39,1.07.71,1.74,1.18s1.14,1.07,1.3.67-1-2.05-3-3.47-2.56-1.53-2.56-2.28,1.18.27,3.39,2,6,5.52,6.74,5.87,1.82,2.17,2.45,2.8.47,1.62.86,1.81,1,0,1.38.36a8.69,8.69,0,0,0,3.24,3.27,47.15,47.15,0,0,0,5.24,3.27c1.58.83,1,.87,3.27,2.13s2.49,2.56,3.35,2.25-2.64-3.86-4.49-5.68-3.27-3.31-3.9-3.94.07-1.14-1.42-2a10.18,10.18,0,0,1-3.39-2.72c-.48-.83-.56-.91-1.58-1.07s-1.18-.63-1.7-1.1-.86-.47-.94-.16.63,1.42-.4.48-.39-.6-1.1-1.46-1,.35-3.71-2.57-.33-1.28-2.68-3.62c-.75-.75-.31-.71.2-.71s1,0-.75-1.22-5.72-4.34-6.7-5.29-1.38-.59-1.89-.79.11-.19.23-.51.12-1.18-1.22-1.46-3-1.06-3.31-.79-.2,1.23-.59,1.19-.32-.63-.71-1.24-1.62-1-2.13-1.44-1.18-.24-2.33-.63-.94-.63-.08-.48.83-.35.12-.86.59.23,1-.32-1.54-1.22-2.6-1.66-3.2-2.28-3.87-1.93l-.25-.81a1.32,1.32,0,0,0,.41,0c1-.32-.47-.64-1.81-1.74s-2-1.58-.4-.87,3.55,2.48,4.42,2.66a16.37,16.37,0,0,1,3.23.77c1.34.52,2.6.91,2.76.36s-.93-.9-1.81-2.15A169.48,169.48,0,0,1,775.88,587.12Zm-18.53,49.35c.16-.86.32-2.28,0-2.05s-.31.87-.55,1.19,0-1.19-.63-1.19c-1.58,0-.32,2.92-.55,3.55s-.4,3.63.27,3.55,0-1.73.67-2.68A4.26,4.26,0,0,0,757.35,636.47Zm-2.86-14c.06-1.36-.47-1.24-.83-2.09s.54-3,0-3.06-1.12-.71-1.19.65-.34,1.25-.7,2a26.32,26.32,0,0,0-1.06,3.08c-.36,1.16-.36.2-1.07,0s-.59.71-1.18,1.71a5.1,5.1,0,0,0-1,2.78c0,1.25-1.53,1.48-.76,1.72s0,0,.59,0,.82-1.6,1.18-1.95a6,6,0,0,0,.86-1.89c.26-.77.74-.71,1.22-.71s.23.59,0,1.77a1.67,1.67,0,0,0,1.41,2.07c.83.06,1.24-.53,1.3-1.54a2.49,2.49,0,0,0-.41-1.83,2.37,2.37,0,0,1,.29-2c.3-.28.77,1.94,1.07,1.88S754.43,623.84,754.49,622.48Zm-2.58,19.2c.24-.87,1.42-2.37,1.1-2.76s-1,.79-1.89,2.29-1,2-1.74,1.89-1.41,1.65-2.52,2.36-1.89.48-2.24,1.66-1.38,2.49-.52,2.76c1,.31,1.34-.47,1.82-.79s-.08-1.42.36-2,.74.87,1.45.39a6.28,6.28,0,0,0,1.65-2.44c.14-.47,1.35,0,1.82-.32S751.67,642.55,751.91,641.68Zm-.47,20.7c.94-1.34,1.14-1.86,1-2s-1.61,1.49-2.95,2.83a11.42,11.42,0,0,0-2.65,4.74c-.35,1.38-.73,2.7-.43,2.44a13.81,13.81,0,0,0,2.37-4A26.13,26.13,0,0,1,751.44,662.38ZM752,614.2c.59-.24,0-2.9-.77-4.14s-1.54,1-2,1.24-.77-1.3-1.12-2.19-1.9-.82-2.67-.65-.35,1.66-.82,1.78-1-2-1.25-2.9.42-1.77.66-3.49a8.28,8.28,0,0,0,0-3.61c-.3-1-.77-1.06-.6-2.07s-.88-.35-2.07.36-1.47.35-1.53,2.25.53,3.31.88,5.08l-.23.47c-.24.48-.12,1.13.06,3.08s.53,1.48,1.71,2.42,1.12,1.66.71,1.66.18,1.66.95,2.54.77.3.94-1.06-.06-1-.65-1.72a1.38,1.38,0,0,1,.3-2c.47-.35,1.24,0,1.54-.89s1.18-.17,1.59.36-.06,2.07.83,2.72.53-1,.89-1.54.94.3.94,1a5.19,5.19,0,0,0,.24,2.3c.36.71.59,1.6,1.12,1.6S751.42,614.44,752,614.2Zm-1.5,4.73c.43-.47.51-.83,0-1.48s-.69-1.18-1-1.18-.36,1-.83.86-.2-.68-.37-1.33-.4-.6-.7-.48-.56.54-1.11.54-.66.35-.72,1,.53,1.36,0,1.72c-.75.5.06,2,.47,1.81s1-1.4,1.24-1.7.24.67,0,1.28-1.12,1.56-.47,2.15,1.42.83,1.78.36,0-1.58.47-1.91S750.08,619.4,750.51,618.93Zm-2.4,31.52c.65-.77,1.3-2.37.94-2.54s-2.36,2.36-3.19,3-.53,1.72-1.24,1.84-.71-1.19-.77-1.78-.53-.53-.83.71a4.72,4.72,0,0,1-1.12,2.37c-.71.94-.3,2.24-.47,3.43s-1.53,1.64-1.13,3.25c.24,1,.24,1.6.47,1.6s.24-1,.42-1.48.53-.24.71.18-.59.65-.47,1.59-.78,1.72-.3,2,1.3-.77,1.89-1.48.3-2,.47-3.13a7.67,7.67,0,0,0,.18-2.54,1.24,1.24,0,0,1,.71-1.42c.36-.18.65.06.24,1.06s0,.77.11,1.66-.17,2,.3,2,1-1,1.25-1.77,1.06-.77,1.35-1.07.3-1-.35-.94-.36-1.31-.3-2.27-1-.51-.88-1.23A10.39,10.39,0,0,1,748.11,650.45Zm-3.37-121.17c.47-.24-.48-2.37-1-3.43s-3.19-4.26-4-5.8-1.35-4.73-2.89-6.26-2.56-1.16-2.23,0c.26.88.34,2.3,1.28,3.19s1.19.71,1.6,2.13,1.42,2.95,1.42,4.08,1.48,3.55.78,4.06-1.55-1.87-1.43-.28,1.06,1,1.12,1.72a4.91,4.91,0,0,0,.71,3.07c1,1.66.06,1.07-.4,1.13s-.66,1.71-1.25,2.54-.77.47-1.25,3.07,1.3,3.43,1.78,3.2.23-1.89.76-2.13.42-2.25.89-2.25.24-1.42.83-1.42.12,1,1.07,2.25,1.3.24,1.3-.83a5.58,5.58,0,0,0-1.3-3.07c-.6-.71.47-.71,1.18-2.13s-.36-3.31-.12-3.91S744.26,529.52,744.74,529.28Zm-2.07,141.5c.82-.85,2-1.94,2-2.65s-1.9,1-3,2.24-2,1.79-1.42,1.82A4.07,4.07,0,0,0,742.67,670.78Zm-.42-130.25c.24-.4.53-.49.18-.72s-.71-1.78-1.07-2-.71,1-1.06,2.25-1.1,2.83.47,3.25c.89.24.89.24,1.13,0s-.18-.88-.36-1.83S742,540.93,742.25,540.53Zm.13,80.88c.23-2.6-1.07.48-1.19,1.54s-2.37,7.41-2.61,8.73C738.43,632.53,742.16,624,742.38,621.41Zm-.72-70.55a2.28,2.28,0,0,0,.65-2.66c-.47-1.3-1.18-1.53-1.42-2.72s-.65-1.89-1.83-2-1.42-.29-1.54,1a2.69,2.69,0,0,0,.5,2.36c.51.83.86,1.36,1,1.13s-.3-2.07.24-1.54.14,1.89.57,2.42S741.13,551.28,741.66,550.86Zm.63,98.55c.55-.56-1.5-.79-2.21-1.34s-.15-2-.39-3-.4-1.18.08-2.05,1.5-.95,1.42-1.58a1.92,1.92,0,0,1,.39-1.81,3.31,3.31,0,0,0,.71-2.13c0-.55-1.66,1-2.36,1.1s-.24-1.42-1.11-2.36-3.23,4.89-4.1,7.33-1.81,2.21-3.39,4.73-.39,2.68-3,4.89-2.28,2.6-2.6,4.42-.39,1.34-1.1,1.39-1.42.66-2,.42-.55-1.18-1.74.89-.71,2.34,0,4.63.79,1.81,1.74,2l.55,3.38a2.28,2.28,0,0,0,2.13-1.49c.63-1.26.63,1.81,1.26,1.89s.47-1.57,1.18-2,1.11-.23,1.34-1.1,0-1,.55-.16,1.11.55,1.62-.08.43-.94.51.16.56.16,1.34-.55a5.32,5.32,0,0,0,1.82-2.68c.23-1.11.39,1,1-.08s.55-3.23.55-4.65.71-1.42,1.42-2.21-.31-1.1.48-1.66.63-1.65.86-3.07-.23-1.5.64-1.58S741.74,650,742.29,649.41Zm-.87,24c.12-.82-1.36-.47-2.3.3s-1.34,1.8-.77,2c.32.09.26-.12.56-.47s.15-.24.88-.18S741.31,674.28,741.42,673.45Zm-2.3-1c0-.48-.83-.36-2.19.89s-3.45,2.3-2.66,3.49c.35.53,1.18-.24,1.77-1.13S739.12,672.92,739.12,672.45Zm-1.36-84.63a3.35,3.35,0,0,0,0-2.6,25.74,25.74,0,0,1-.83-4.73c-.12-1.42,0-3.37-1.3-1-.65,1.14-.59,3-.83,5.28s-.12,1.66,1.3,3.07S737.4,588.77,737.76,587.82Zm-4-75.93c0-1.18-1.45-1.3-1.34-1.89s-.82-1.54-.23-1.77,1.3.94,1.54,0-.83-2-.6-3.2a2.48,2.48,0,0,0-1.3-2.92c-1.18-.56-1.18.08-2.13.68s-3-2.63-3.19-1c-.12,1.06.59,1.3,1.78,2.25s1.53,1.42,1.85,4.61,1.57,2.48,2.28,3.19S733.74,513.08,733.77,511.89Zm-13.75,99c.71-.59.59-3,0-3.79s-3,1.07-3.26,2.37-1.26,1.74-1.12,3.67c.06.81,0,.82,1.12.47s2.9.59,2.55-.47A1.81,1.81,0,0,1,720,610.89Zm-1.25,62.32c.3-.67-.35-.88-1-.7a1.32,1.32,0,0,0-1,1.39c0,.5.24,1.15.59,1.15S718.48,673.87,718.77,673.21Zm-3.78.66c.06-.89-.47,1.06-.89-.36s-.71-1.65-1.24-1.47-.89,1.59-1.42,1.71.06.39.59.49.89.34.59.57-1-.17-1.47.06-1.07,1.19-1.25,0a3.25,3.25,0,0,0-1.06-2.18c-.47-.42-.59.47-1.3.35s-1,.06-.18-.71.89-1.36.3-2.07-.89.24-1.36.42.35-.3-.06-1.07-1.07-.35-1.24-.89,0-1.42-.89-1.06-1,1.12-1.18.71-.3-1.24-.77-.77-.42.71-1.13.47-1.06.71-1.48,0-.23-.71-1.06-1-1.83-.18-2.31-1-1.42-.18-2.24-.89-.36-.59-1.42-1.47-.83-.77-2-.42-1.48.89-2.78.59-2.15-.59-2.37-.17c-.47.9-.12,1.18,1.42,2.48s2.25,1,3.67,2.13,1.77,2.48,3.07,2.6,1.89,1.3,2,2.6,1.78,1.3,2.72,2.6.83,3.08,3,4.74,1.54-.48,2.25,0,.59,2,2.48,2.36,2.49,2.13,3.67,1.18,2.48-1.18,2.84-3.31.11-5.08,1.18-5.32S714.93,674.76,715,673.87ZM644.68,668a3.21,3.21,0,0,0-.95-2.44c-.47-.63-.32-1.74-1.1-1.89s-.87-1.5-1.66-2.68-1.66-.79-2.51.47-.25,2.68-.38,3.63-.42,1,.21,2.2-.71,1,0,2.61l.16.39c1.26,1.74,2.36,1.1,2.84.87s1.89.47,2.52-.32A3.85,3.85,0,0,0,644.68,668ZM548.16,718.4c.6-.36.36,0-.59-2s-.12-2-1.77-4.26-1.78-1.42-2.6-1.18.23,2.36-.48,2.36-1.42-1.89-1.89-1.18.95,2.13,0,2.48-1.89.12-2.13.71-5.44.12-6.5-.47.23,1.42,0,1.66a2.24,2.24,0,0,0,.35,2.48c.83.83,1.89,1.06,1.66,2.13s-.24,1.89-.71,2-1.81-.84-1.3.24a17.47,17.47,0,0,0,2.95,4.25c1.31,1.3,3.2,3.32,4.85,3.43s2.49.6,3,.48.71.27,1.42,0,.12-1.21.59-1.92-.24-1,0-2.13.24-2.24,1.07-2.83-.24-2.13,0-2.84-1-1.3.32-1.42,1.09-1.54.5-2S547.57,718.75,548.16,718.4Z" transform="translate(-34.33 -127.86)" fill="#033c5a"/>
      <path d="M669.36,446.65c.47.39-.79.47-2.09,0s-1.74-.7-2.33-.07a1.91,1.91,0,0,0,0,2.09c.24.47.51,1.06-.47,1s-1.82.28-2.33.24-.35-.75-.94-.67-1.19.55-1.07,1-.63,0-1.34.67-1.81,1.46-1.34,1.89,0,.95.71,1.11,2.09.35,2.13.79-.24.59-.75.82-.39,1.5-.67,1.66-2.21,0-2.13.39,1.46.71,1.77,1.07,1.07,1.06-.11,1a14.16,14.16,0,0,1-3.63-1.06c-.71-.28-1.07-1.54-1.38-.91a2.74,2.74,0,0,0-.28,1.27,2.28,2.28,0,0,1-1.73-.6c-.91-.75-1.93-1.38-2.84-1.06s-.71,1,.12,1.18,1.34.71,1.14.95-2.48,0-2.76.47a.68.68,0,0,1-1.14.24c-.47-.4-.91-.75-2.17,0s-1,1.18-.75,1.65-.31.48-.91-.35-.78,0-1.42,0-1.41-.35-1.49.08.39.79.86.83-.59,1.14-1,1.3-.79.08-.91,1-.16,1.38-.43,1.42-.47-1.34.08-2.32.35-2.25.67-3.31.79-1.38-.28-2.65-1.81-.67-2.44-1.22a2,2,0,0,0-2-.27c-.71.15-.87.07-1.07.74s-.79.91-.94.12-.64-.63-1.23-.63-.19-1.1-1.5-.83-.9,1.15-.94,1.9.63.79.24,1.3a11.38,11.38,0,0,1-1.54,1.38c-.52.43-1.58-.12-2.25.31s-.08.63-1.34,1.3-2.92,1.58-3.08,2.29-.19,1.42.6,1.62,1,.47,1,.67-.39.12-1.5.31-3.11.44-3.74,1.26.16.67.31,1.42-.08.75,1.19,1.19.51.23,1.61.94.59,1.62,1.34,2.33-.06,1.83,1.22,2.5a13.83,13.83,0,0,0-1.53-.53c-.75-.2,0-1.89-.63-2s-1.1-.91-.61-1.07.41-.9-.3-1.14-1.5.12-2.25-.47-2-.4-2.4-.55-.63-.67-.91-.24.08.63.83,1-1.07-.27-1.22.08a1,1,0,0,0,.39,1.42c.75.48,1.7.32,1.74.71s-1.27,0-2.21,0-.83-.2-.91-1.26.55-1.66-.39-2.56-1.22-1.15-1.3-.83,0,.47.51,1.06.75,1.15.31,1.46-1.38.71-1.3,1.46.24.67.83,1.5-.12,1.42,0,2.56-.23,1.93.87,1.74,1.38-.48,2.48-.2,1.78.24,1.78.63a4.22,4.22,0,0,0,.27,1.46c.16.24-.31.79,0,1.26s1.07,0,1.19.47-.87.52-1.46.08-.87-.35-.75-1.38,0-1.93-1.22-1.89-2.05,0-2,.75.63,1.18.39,1.93-1,1.22-1.07,2.09-.63.87-1.14,1.1-.39,1-1.3.95-2,.43-2.76-.51.67.39,2.09-.47,1.26-1.07,1.54-1.9.9-.15,1.06-1.06a2.19,2.19,0,0,0-.55-2.21c-.67-.71-.59-.55-.67-2.36s.08-3-.55-3.75-.59-.51-.12-1.38.83-1.81.12-2.25-.83-.08-1-.47.79-1.14-.47-1.22-.87.35-1,.87-1.1.19-1.1,1.14,0,1.77-.63,2.13-1.85,1.06-1.77,1.73.67.4.67.83.11,1.3-.2,1.46a.84.84,0,0,0-.36,1.06c.2.44.83-.08,1.07.24s.19,1.22.63,1.26.71.08.59.63-.08,1.34-.59,1.22-.75-1.42-1.81-1.69-.83-.32-2.53-1.34-1.65-1.11-3.35-1.14-.71-.64-1.73-1.7-.67-.16-1,.2-.12.79.67,1.5.24.94.83,1.61.71.91,0,.79-1,.63-1.38,1-.43.23-.4-.83-.35-.91-1.14-1-.47.52-1.54.83-.59-.35-1.77,0-.83.95-2,.67.12-.51.47-1.18-.12-1.34-.83-.91-.55.79-2,.79a3,3,0,0,0-2.2.71,6.6,6.6,0,0,1-2.49.71c-.9.08-.55.28-1.1.95a1.7,1.7,0,0,1-2.21.63c-1.14-.4-.83-1.26-.39-1.78s.47,0,1.26-.19,1-.2,1.06-1.11-.79-1.1-1.42-1.5-.9-.43-1.14,0,.16,1.07-.2,1.34-1.5,1.11-1.5,1.54.6,1.18.24,1.58-.51,1.06-1.3,1-1.18-1.26-1.89-1a7.87,7.87,0,0,1-2.41.91c-1.38.19-1.81.75-1.77,1.26s0,1.5-.4,1.65-.74.24-1.53-.67-1.07-1.65-2.09-1.34-.67.87-.55,1.46.7,0,.74.59a.87.87,0,0,1-1.06,1,1.56,1.56,0,0,1-1.3-1.42c-.12-.87-1.26-.12-.71-1.38s.59-1.85,1.26-2.21,1.1-.83.87-1.5-.32.28-.32-1.69.16-.55.55-.16a8.71,8.71,0,0,0,2.21,1.93c.91.4.59,1.19,2.37,1.42s2.68.24,3.47-.75a2.36,2.36,0,0,0,.79-1.77c.15-.91.59-.08-.16-1.3A3.45,3.45,0,0,1,571,475c-.12-1.3-.79-1.42-1.66-2.13s-1.61-.71-1.85-1.26.55,0,.91-.55-.28-.28-1.38-.63-1.3-.71-1.5-1.46.39.55,1.38.39,1.18-.63.67-1.34-1-.43-1.26-.75,1.06-1-.28-1.06.2-.67-1.38-.75-2.95-.47-3.11,0-.91.67-.91.67c-.51.32-2.25.36-2.44-.08s-.71-.59-2.17-.59-1,.59-1.42,1-.91.11-.91-.48-2.13-.31-3.43,0,.75.75,1.42.67.63.55-1.38.79-5.36,2-7.17,3a8.55,8.55,0,0,1-4.26,1.18c-2,.24-1.77.87-2.92,1.1s-2.05-.39-3,0-.83,0-2.72,0-2.21,1.15-3.08,1.7a26,26,0,0,0-3.59,3.27,17.58,17.58,0,0,1-2.09,2.13c-1.42,1.22-1.14,2.21-.47,2.92s2.56-.4,3.15-.63,2.37-.32,2.33.12-.67.82-2,2.64q-.37.51-.63.9l-1.18,0c.23-.55-.4-.55-2.13-.35s-1.93.55-4,1.73a4.63,4.63,0,0,0-2.41,3.08,4.71,4.71,0,0,1-1.3,2.05,4.19,4.19,0,0,0-1.34.91c-.63.63-1.1.47-.79.08s.83-1.11.47-1.42-1.42.47-1.73.19a3.21,3.21,0,0,0-1.34-.79c-.63-.17-1.11,1.27-1.46,1.23s.75-.95.47-1.19-.9.44-1.77,1a4.49,4.49,0,0,1-2.84,1.1c-1.66.12-.91-.19-1.77-.35s-1.27.71-1.78,1.26-.63.08-1.14-.08a2.66,2.66,0,0,0-1.5.28c-.39.12-.91.31-.87-.28s.67-1.1.63-1.54-.63-.08-1.26.48-.9,1.49-1.34,1.65-.75-.47-.59-.86.63-1,.28-1.15-.59-.63-.95-.75-1.14,1.11-1.58,1.66-.31,3.23-.47,3.9-1.18,1.22-1.58,2.72-1.85,2.37-2.84,3.31-2.36,2.8-3,3-.87-1-.79-1.81-.75-.75-1-1.07.14-2,0-2.48-1-.79-.53-1.3.75-1,.32-1.19-1.3.08-1.93,0-.79.87-1.27,1.78-1.3,1.06-2.08,2.56a15.25,15.25,0,0,1-3.91,4.06,3,3,0,0,0-1.5,2.29,3.92,3.92,0,0,1-1.53,2.36c-1.15,1.11-.83,1.7-.75,2.72s1.06.87,0,2.53-.36,1.85-1.11,2.52a17.75,17.75,0,0,0-2.52,2.17,1.6,1.6,0,0,1-1.85.67c-.55-.08-.67,0-2.17,1.3a8.12,8.12,0,0,0-2.37,3,6.77,6.77,0,0,1-2.28,2.84c-1.34.94-1-.4-1.5-.48s-1.11.87-1.58,1.42-1.65,1.11-2.28,1.74-.71,1.65-2.29,3-1.89,3-3.23,8-6,20.25-6,20.25a169.65,169.65,0,0,1,113-136.73,1.25,1.25,0,0,0,1.77.73,19.63,19.63,0,0,1,5.52-1.11c.31.08-2.13.89-3.31,1.27s-2.61,1.33-.79.94,7-2.37,8.67-2.68,2.92.63,4.1,0,2.76-.55,4.18-.95-1.26-1.1,4.18-.94,6.7-.08,6.62-.4,2.76-.23,3-.94,4.26-.71,2.13-1.66-6.39.87-6.63,0c0-.18.19-.31.63-.41,1.63-.34,6-.16,8-.22,2.6-.08,3.23.16,3,.39s-2.91.56-3.47,1.27-3.07,1.26-4.49,1.81.16.47.95.67-.1,2.8,1.25,2.8,0,.39.72,1.73.79,2,3.39,1.9,3.86-1.27,6.62-2.92,1.18-1.59,1.1-2.37-1.73-.55-3.62-.94-3.16,1.64-3.63.94.47-.63,1.1-1.34.56-.94,3.08-.71,3.07.08,1.42-.79S593.9,422,594,421s-1-1.5,1.57-1.5,5.36-.23,5.92.4,1.18,1.65,2.2,1.18.4-1.26,2.76-1a22.47,22.47,0,0,1,5.29.79c1.1.48,2.44.16,4.65.55s4.41.16,4.34-.47-.64-.63-2.29-1-2,.55-2.68.39,0-.56-.87-.83-1.26-.51-1.18-.75c0,0,.09-.06.22-.06.57,0,2.19.35,4.43.54,2.76.23,3.78.63,4.73.39s.4.47,3.15.87,4.81.55,6.79.87,2.52,1.18,3.78,1.34,1.74.78,3.23,1,3.32,1.89,4.81,2,1,.87,2.45,1.5a15.08,15.08,0,0,0,3.62,1.58c2.45.71,5.92.63,6.47,1.1s2.21,1.66,2.68,1.58.71-1.74,2.13-1.34.87,1.34,2,1.73,2.68,1.24,3.77,1.24l.25.81c-.67.36-1.22.87-.55,1.34a4.08,4.08,0,0,0,1.74.54c-.43,0-1.64,0-1.9.37s-1.14.95-1.57,1.38a3.4,3.4,0,0,0-.28,2.56c.24.44-.12,1.26.67,1.5s-.08.87,1.62,2.09S667.45,445.06,669.36,446.65ZM662,437.54c.32-.47-.08-.71-.94-1.18s-2.61-2-2.61-.95.32,1.18,1.11,1.42S661.71,438,662,437.54Zm-5.44,13.61c.32-.44-2-1.07-2.76-.6-.54.32.87,1.42,1.42,1.58S656.27,451.59,656.58,451.15Zm-4.26-3.65c1-.34.87-1.6.71-2s-1.06-.31-1.12,0-.77.08-1.24,1.11C650.39,447.22,651.3,447.85,652.32,447.5Zm-.78,1.55c.71-.55-.08-.95-1.34-1.42s-.84.47-.74.87-.76-.79-1.31-.24-1.35.47-1,1.42c.69,2.07,2.6,1.42,3.86,1.18S650.83,449.6,651.54,449.05Zm-46.6,13.29c2-.83,1.53-1.54,0-1.3s-3.08,1.53-3.91,1.06-2.6.71-4.85,1.3-.94,1.42-2.84,2.37-.11.94-2,2.24-.71,1.19-1.65,1.78-1.51-.49-2.13,1.06c-.32.8.12.95,1.42,1.18s1.06.12.71,1.19,2.6,1.06,3.19,1.06-.23-.71-.59-1.89.71-2.13,1.42-3.19.59-.71,1.06-.83,1.78-2.25,3.2-3.15,2.24-1.7,3.07-1.46S602.93,463.16,604.94,462.34Zm-18.1-30.28c.48-.47-.12-1.66,0-2.49s-2.72-.23-2.84-.47,1-2.36,0-2.72-2.84,1.66-3.55,1.78,1.9-1.78,1.9-1.78a11.63,11.63,0,0,0-5.68,1.42c-2.6,1.54-3.08,1.18-5.92,1.66s-7.92.59-9.58.71-2.12,1.06-2.6,1.05a5.82,5.82,0,0,0-3.66,0c-2,.7,1.18.13,1.42.6s-3.55.83-4.74.71,1.9-1.18,0-1.3-2.24.83-3.78.93-1.18.25-1.54,0-3.9,1.89-4.73,2.48-.24-1.18-.94-.87a71.6,71.6,0,0,1-8.05,3.95c-3.31,1.18-1.3.47-2.48,1.53s-4.32,1.72-3.79,2.49c.21.31,3.73-.71,5-1.19s2.19-.17,3.43-.11,1-.89,1.78-.6,2.72.24,2.72.54-1.25.06-1.9.35.65,1.42,1.66,1.78.35-.77,1.6-.65,1.24,0,1,1,.47,1.66,2.72,2.47,2.13-.87,2.54-1.23-1.06-1.95,0-1.36,1.54.65,2,.18c.31-.31-.27-.66-.55-.8.65.14,2.68-.31,1.91.68s-3.91,2.13-3.32,2.48,5.09-1.68,5.09-1.68,1.66-.33,2.72-.68.71-2,.71-2l1.27,1.06s-1.51.71-.68,1.46,2-1.1,2-1.1.71,1.3,1.18,1.07,1.07-1.31,1.07-1.31,0,1.42.71,1.3,1.3-2,2.48-1.65,1.07.12,3.9-.59,1.42-.24,2.13-.95,2-.12,5.92.12c3.2.19,1.86-.33,1.75-.39l.14,0a6.39,6.39,0,0,0,3.07.83c2.25.12.83-1.18-.82-1.66s-1-1.3.23-.7,1.54.47,1.66-.36.83-2.37.83-.95,2,.48,3.31,0,.35-1.65.12-2.36.94-.71.52-1.42-2.06.59-2.3.43,1.3-1,1.42-1.73S586.37,432.53,586.84,432.06Zm-51.9,20.22c.49-.82-.61-1.18-1.2-1.65s.11-.59.82-.83.48-1.18-1.3-1.18-.59,1.65-1.18,2-.83-.71-2.25,0-1.42.35-1.77,1.42-1.89,1.06-1.78,2.24a7.12,7.12,0,0,0,2.25,1.66,5.86,5.86,0,0,0,3.19,0C532.91,455.71,534.44,453.11,534.94,452.28ZM517,473.81c.41-.3.06-.59-.59-1.22s-.89-.5-2.13,0-1.07.45-1.42.1-.53.41-1,.88a6.91,6.91,0,0,0-1.89,2.31c-.65,1.36-.65-.36-1.18-.42s-.83,1.54-1.72,2.78-.88,1-.65,1.48.12.65-.65,1.42-1,1.54-1.78,1.95-.58-.77-.88-1.06-.59.41-1.42,1.89-.94.18-2.19.65-.41,1.18-.35,2.42-.47.66-.59.18-1.48.06-2.31.42-2.24-.14-1.36.83c.65.71,1.3,1.3,1.6.94s.53-.06,1.48.77.65,1.66,2.24,1.95,1.31-.23,1.13-1,.53-.48,1.54-.59a3.35,3.35,0,0,0,2.12-1.6c.42-.59,0-1.18-.59-.95s-.65-.23,0-.77,2.07-2.07,2.66-2.54a3.19,3.19,0,0,0,.89-2.19c.12-.88,3.14-3.55,3.43-3.9s-.35-1.12.12-1.24,2.25-.48,2.72-.53.77-.65.3-1.36-.65-1-.18-1.48S516.59,474.1,517,473.81Zm-10.17,3.43c.59-.71.12-.77-.3-1.36s-2.13,0-3.43.53-1.18.65-1.42,1.59-.65.48-1.18.07-1.36,1.18-2.54,1.83-1.24,0-1,1.48a.62.62,0,0,0,.24.79c.47.26,1.6-.44,1.77.33s.65.36,1.54,0a9,9,0,0,0,2.66-2.3,1.8,1.8,0,0,1,1.78-.77C505.41,479.37,506.24,478,506.83,477.24Z" transform="translate(-34.33 -127.86)" fill="#033c5a"/>
      <path d="M674.72,432a169.74,169.74,0,0,1,98,188v0a169.2,169.2,0,0,1-66.33,104h0a169.39,169.39,0,0,1-222.16-19.53s0,0,0,0A168.83,168.83,0,0,1,437,587.12v-.72A169.29,169.29,0,0,1,551.68,426.72a168,168,0,0,1,29.91-7.23,171,171,0,0,1,24.84-1.81q3.78,0,7.52.16A168.64,168.64,0,0,1,674.72,432Z" transform="translate(-34.33 -127.86)" fill="none" stroke="#033c5a" stroke-miterlimit="10" stroke-width="5"/>
    </g>
    <g id="center" data-name="center">
      <path d="M1044.49,701.7C1017.4,864.15,864.23,988.6,679.34,988.6c-204,0-369.42-151.53-369.42-338.44a313.48,313.48,0,0,1,32.25-138.49l.53.26a40.86,40.86,0,0,0-3,8.34,280.6,280.6,0,0,0-8,65.19C330.77,737.33,453.13,861.21,605,862.15l1.7,0c151.88,0,275-123.12,275-275q0-11.54-.94-22.84C878,530.49,837.05,515,812.85,538.74a275.49,275.49,0,0,1-231.56,76c-6.63-.94-6.38-10.55.29-11.14,111.77-9.91,210.33-87.69,240.83-202.5a277,277,0,0,0,6.28-30.33C837,315,906.6,294.32,943.49,337a445.8,445.8,0,0,1,102.07,364.89Z" transform="translate(-34.33 -127.86)" fill="#aa9868"/>
      <path d="M342.17,511.67a313.48,313.48,0,0,0-32.25,138.49c0,186.91,165.39,338.44,369.42,338.44,184.89,0,338.06-124.45,365.15-286.9l1.07.18a445.1,445.1,0,0,1-438.86,371h-.26c-245.76,0-445-199.23-445-445A443.31,443.31,0,0,1,276.31,329.49c34.62-38.29,98.16-23,111.69,26.81A275.44,275.44,0,0,0,629.85,558.46c6,.53,6.33,9.25.34,10.14a275.6,275.6,0,0,1-224.73-68.09C385.25,482.26,354,489,342.7,511.93Z" transform="translate(-34.33 -127.86)" fill="#033c5a"/>
      <circle cx="759.23" cy="96.59" r="65" fill="#aa9868"/>
      <circle cx="380" cy="99.59" r="65" fill="#033c5a"/>
    </g>
    <g id="side" data-name="side">
      <path d="M1082.71,304.66c59.51,75.68,95.73,170.56,95.73,274.3,0,213.34-150.12,391.62-350.5,434.95,133.57-76.8,223.5-220.92,223.5-386,0-91.27-27-176.56-74.09-247.17a65,65,0,0,1,105.36-76Z" transform="translate(-34.33 -127.86)" fill="#033c5a"/>
      <circle cx="922.11" cy="65" r="65" fill="#033c5a"/>
      <circle cx="222.11" cy="65" r="65" fill="#aa9868"/>
      <path d="M246.11,344.63a64.72,64.72,0,0,1-11,36.23c-47,70.56-73.65,155.85-73.65,247,0,165.16,90,309.3,223.57,386.09A445.17,445.17,0,0,1,34.33,579c0-104,36.3-199.3,96.14-275.08a65,65,0,0,1,115.64,40.75Z" transform="translate(-34.33 -127.86)" fill="#aa9868"/>
    </g>

  </g>
  </div>
</svg>